v 5 1.68229166667 0.5
v 5 1.78125 0.5
v 5 1.78125 0.6
v 5 1.68229166667 0.6
v 4.9 1.78125 0.5
v 4.9 1.78125 0.6
v 4.925 1.78125 0.6
v 4.95 1.78125 0.6
v 4.975 1.78125 0.6
v 4.95 1.68229166667 0.6
v 4.975 1.68229166667 0.6
v 4.9 1.68229166667 0.6
v 4.925 1.68229166667 0.6
v 4.9 1.68229166667 0.5
l 1 2
l 2 3
l 3 4
l 4 1
l 5 6
l 6 7
l 7 8
l 8 9
l 9 3
l 3 2
l 2 5
l 9 8
l 8 10
l 10 11
l 11 9
l 7 6
l 6 12
l 12 13
l 13 7
l 11 4
l 4 3
l 3 9
l 9 11
l 13 10
l 10 8
l 8 7
l 7 13
l 14 1
l 1 2
l 2 5
l 5 14
l 14 12
l 12 13
l 13 10
l 10 11
l 11 4
l 4 1
l 1 14
l 14 5
l 5 6
l 6 12
l 12 14
