v 5.83782577515 2.61805915833 0.449999988079
v 5.83782577515 2.61805915833 0.583333313465
v 5.83733510971 2.6253900528 0.449999988079
v 5.83733510971 2.6253900528 0.583333313465
v 5.83782577515 2.63272094727 0.449999988079
v 5.83782577515 2.63272094727 0.583333313465
v 5.83928918839 2.63992071152 0.449999988079
v 5.83928918839 2.63992071152 0.583333313465
v 5.84169912338 2.64686155319 0.449999988079
v 5.84169912338 2.64686155319 0.583333313465
v 5.84501266479 2.65341877937 0.449999988079
v 5.84501266479 2.65341877937 0.583333313465
v 5.84917068481 2.65947628021 0.449999988079
v 5.84917068481 2.65947628021 0.583333313465
v 5.85409975052 2.66492533684 0.449999988079
v 5.85409975052 2.66492533684 0.583333313465
v 5.85970973969 2.66966891289 0.449999988079
v 5.85970973969 2.66966891289 0.583333313465
v 5.8659029007 2.67362213135 0.449999988079
v 5.8659029007 2.67362213135 0.583333313465
v 5.87256717682 2.67671489716 0.449999988079
v 5.87256717682 2.67671489716 0.583333313465
v 5.87958478928 2.67889165878 0.449999988079
v 5.87958478928 2.67889165878 0.583333313465
v 5.88682937622 2.68011403084 0.449999988079
v 5.88682937622 2.68011403084 0.583333313465
v 5.89417266846 2.68035936356 0.449999988079
v 5.89417266846 2.68035936356 0.583333313465
v 5.90148305893 2.67962384224 0.449999988079
v 5.90148305893 2.67962384224 0.583333313465
v 5.90863037109 2.67792057991 0.449999988079
v 5.90863037109 2.67792057991 0.583333313465
v 5.91548633575 2.67527985573 0.449999988079
v 5.91548633575 2.67527985573 0.583333313465
v 5.92192983627 2.67174911499 0.449999988079
v 5.92192983627 2.67174911499 0.583333313465
v 5.92784452438 2.66739106178 0.449999988079
v 5.92784452438 2.66739106178 0.583333313465
v 5.93312597275 2.66228318214 0.449999988079
v 5.93312597275 2.66228318214 0.583333313465
v 5.93767929077 2.65651726723 0.449999988079
v 5.93767929077 2.65651726723 0.583333313465
v 5.94142341614 2.6501955986 0.449999988079
v 5.94142341614 2.6501955986 0.583333313465
v 5.94429206848 2.64343142509 0.449999988079
v 5.94429206848 2.64343142509 0.583333313465
v 5.94623279572 2.63634538651 0.449999988079
v 5.94623279572 2.63634538651 0.583333313465
v 5.94721221924 2.62906360626 0.449999988079
v 5.94721221924 2.62906360626 0.583333313465
v 5.94721221924 2.62171649933 0.449999988079
v 5.94721221924 2.62171649933 0.583333313465
v 5.94623279572 2.61443471909 0.449999988079
v 5.94623279572 2.61443471909 0.583333313465
v 5.94429206848 2.6073486805 0.449999988079
v 5.94429206848 2.6073486805 0.583333313465
v 5.94142341614 2.60058450699 0.449999988079
v 5.94142341614 2.60058450699 0.583333313465
v 5.93767929077 2.59426283836 0.449999988079
v 5.93767929077 2.59426283836 0.583333313465
v 5.93312597275 2.58849692345 0.449999988079
v 5.93312597275 2.58849692345 0.583333313465
v 5.92784452438 2.58338904381 0.449999988079
v 5.92784452438 2.58338904381 0.583333313465
v 5.92192983627 2.5790309906 0.449999988079
v 5.92192983627 2.5790309906 0.583333313465
v 5.91548633575 2.57550024986 0.449999988079
v 5.91548633575 2.57550024986 0.583333313465
v 5.90863037109 2.57285952568 0.449999988079
v 5.90863037109 2.57285952568 0.583333313465
v 5.90148305893 2.57115626335 0.449999988079
v 5.90148305893 2.57115626335 0.583333313465
v 5.89417266846 2.57042074203 0.449999988079
v 5.89417266846 2.57042074203 0.583333313465
v 5.88682937622 2.57066607475 0.449999988079
v 5.88682937622 2.57066607475 0.583333313465
v 5.87958478928 2.57188844681 0.449999988079
v 5.87958478928 2.57188844681 0.583333313465
v 5.87256717682 2.57406520844 0.449999988079
v 5.87256717682 2.57406520844 0.583333313465
v 5.8659029007 2.57715797424 0.449999988079
v 5.8659029007 2.57715797424 0.583333313465
v 5.85970973969 2.5811111927 0.449999988079
v 5.85970973969 2.5811111927 0.583333313465
v 5.85409975052 2.58585476875 0.449999988079
v 5.85409975052 2.58585476875 0.583333313465
v 5.84917068481 2.59130382538 0.449999988079
v 5.84917068481 2.59130382538 0.583333313465
v 5.84501266479 2.59736132622 0.449999988079
v 5.84501266479 2.59736132622 0.583333313465
v 5.84169912338 2.6039185524 0.449999988079
v 5.84169912338 2.6039185524 0.583333313465
v 5.83928918839 2.61085939407 0.449999988079
v 5.83928918839 2.61085939407 0.583333313465
v 5.94684410095 2.61805915833 0.849999964237
v 5.94721221924 2.62171649933 0.716666698456
v 5.94733476639 2.6253900528 0.849999964237
v 5.94721221924 2.62906360626 0.716666698456
v 5.94684410095 2.63272094727 0.849999964237
v 5.94623279572 2.63634538651 0.716666698456
v 5.94538068771 2.63992071152 0.849999964237
v 5.94429206848 2.64343142509 0.716666698456
v 5.94297075272 2.64686155319 0.849999964237
v 5.94142341614 2.6501955986 0.716666698456
v 5.9396572113 2.65341877937 0.849999964237
v 5.93767929077 2.65651726723 0.716666698456
v 5.93549919128 2.65947628021 0.849999964237
v 5.93312597275 2.66228318214 0.716666698456
v 5.93057060242 2.66492533684 0.849999964237
v 5.92784452438 2.66739106178 0.716666698456
v 5.92496013641 2.66966891289 0.849999964237
v 5.92192983627 2.67174911499 0.716666698456
v 5.9187669754 2.67362213135 0.849999964237
v 5.91548633575 2.67527985573 0.716666698456
v 5.91210269928 2.67671489716 0.849999964237
v 5.90863037109 2.67792057991 0.716666698456
v 5.90508508682 2.67889165878 0.849999964237
v 5.90148305893 2.67962384224 0.716666698456
v 5.89784049988 2.68011403084 0.849999964237
v 5.89417266846 2.68035936356 0.716666698456
v 5.89049720764 2.68035936356 0.849999964237
v 5.88682937622 2.68011403084 0.716666698456
v 5.88318681717 2.67962384224 0.849999964237
v 5.87958478928 2.67889165878 0.716666698456
v 5.87603998184 2.67792057991 0.849999964237
v 5.87256717682 2.67671489716 0.716666698456
v 5.86918354034 2.67527985573 0.849999964237
v 5.8659029007 2.67362213135 0.716666698456
v 5.86274003983 2.67174911499 0.849999964237
v 5.85970973969 2.66966891289 0.716666698456
v 5.85682582855 2.66739106178 0.849999964237
v 5.85409975052 2.66492533684 0.716666698456
v 5.85154390335 2.66228318214 0.849999964237
v 5.84917068481 2.65947628021 0.716666698456
v 5.84699058533 2.65651726723 0.849999964237
v 5.84501266479 2.65341877937 0.716666698456
v 5.84324645996 2.6501955986 0.849999964237
v 5.84169912338 2.64686155319 0.716666698456
v 5.84037828445 2.64343142509 0.849999964237
v 5.83928918839 2.63992071152 0.716666698456
v 5.83843708038 2.63634538651 0.849999964237
v 5.83782577515 2.63272094727 0.716666698456
v 5.8374581337 2.62906360626 0.849999964237
v 5.83733510971 2.6253900528 0.716666698456
v 5.8374581337 2.62171649933 0.849999964237
v 5.83782577515 2.61805915833 0.716666698456
v 5.83843708038 2.61443471909 0.849999964237
v 5.83928918839 2.61085939407 0.716666698456
v 5.84037828445 2.6073486805 0.849999964237
v 5.84169912338 2.6039185524 0.716666698456
v 5.84324645996 2.60058450699 0.849999964237
v 5.84501266479 2.59736132622 0.716666698456
v 5.84699058533 2.59426283836 0.849999964237
v 5.84917068481 2.59130382538 0.716666698456
v 5.85154390335 2.58849692345 0.849999964237
v 5.85409975052 2.58585476875 0.716666698456
v 5.85682582855 2.58338904381 0.849999964237
v 5.85970973969 2.5811111927 0.716666698456
v 5.86274003983 2.5790309906 0.849999964237
v 5.8659029007 2.57715797424 0.716666698456
v 5.86918354034 2.57550024986 0.849999964237
v 5.87256717682 2.57406520844 0.716666698456
v 5.87603998184 2.57285952568 0.849999964237
v 5.87958478928 2.57188844681 0.716666698456
v 5.88318681717 2.57115626335 0.849999964237
v 5.88682937622 2.57066607475 0.716666698456
v 5.89049720764 2.57042074203 0.849999964237
v 5.89417266846 2.57042074203 0.716666698456
v 5.89784049988 2.57066607475 0.849999964237
v 5.90148305893 2.57115626335 0.716666698456
v 5.90508508682 2.57188844681 0.849999964237
v 5.90863037109 2.57285952568 0.716666698456
v 5.91210269928 2.57406520844 0.849999964237
v 5.91548633575 2.57550024986 0.716666698456
v 5.9187669754 2.57715797424 0.849999964237
v 5.92192983627 2.5790309906 0.716666698456
v 5.92496013641 2.5811111927 0.849999964237
v 5.92784452438 2.58338904381 0.716666698456
v 5.93057060242 2.58585476875 0.849999964237
v 5.93312597275 2.58849692345 0.716666698456
v 5.93549919128 2.59130382538 0.849999964237
v 5.93767929077 2.59426283836 0.716666698456
v 5.9396572113 2.59736132622 0.849999964237
v 5.94142341614 2.60058450699 0.716666698456
v 5.94297075272 2.6039185524 0.849999964237
v 5.94429206848 2.6073486805 0.716666698456
v 5.94538068771 2.61085939407 0.849999964237
v 5.94623279572 2.61443471909 0.716666698456
v 5.51383113861 2.36805915833 0.849999964237
v 5.51383113861 2.36805915833 0.861000001431
v 5.51432180405 2.3753900528 0.849999964237
v 5.51432180405 2.3753900528 0.861000001431
v 5.51383113861 2.38272094727 0.849999964237
v 5.51383113861 2.38272094727 0.861000001431
v 5.51236772537 2.38992071152 0.849999964237
v 5.51236772537 2.38992071152 0.861000001431
v 5.50995731354 2.39686155319 0.849999964237
v 5.50995731354 2.39686155319 0.861000001431
v 5.50664424896 2.40341877937 0.849999964237
v 5.50664424896 2.40341877937 0.861000001431
v 5.50248575211 2.40947628021 0.849999964237
v 5.50248575211 2.40947628021 0.861000001431
v 5.49755764008 2.41492533684 0.849999964237
v 5.49755764008 2.41492533684 0.861000001431
v 5.49194669724 2.41966891289 0.849999964237
v 5.49194669724 2.41966891289 0.861000001431
v 5.48575401306 2.42362213135 0.849999964237
v 5.48575401306 2.42362213135 0.861000001431
v 5.4790892601 2.42671489716 0.849999964237
v 5.4790892601 2.42671489716 0.861000001431
v 5.47207212448 2.42889165878 0.849999964237
v 5.47207212448 2.42889165878 0.861000001431
v 5.4648270607 2.43011403084 0.849999964237
v 5.4648270607 2.43011403084 0.861000001431
v 5.4574842453 2.43035936356 0.849999964237
v 5.4574842453 2.43035936356 0.861000001431
v 5.45017385483 2.42962384224 0.849999964237
v 5.45017385483 2.42962384224 0.861000001431
v 5.4430270195 2.42792057991 0.849999964237
v 5.4430270195 2.42792057991 0.861000001431
v 5.436170578 2.42527985573 0.849999964237
v 5.436170578 2.42527985573 0.861000001431
v 5.42972755432 2.42174911499 0.849999964237
v 5.42972755432 2.42174911499 0.861000001431
v 5.42381238937 2.41739106178 0.849999964237
v 5.42381238937 2.41739106178 0.861000001431
v 5.41853141785 2.41228318214 0.849999964237
v 5.41853141785 2.41228318214 0.861000001431
v 5.41397762299 2.40651726723 0.849999964237
v 5.41397762299 2.40651726723 0.861000001431
v 5.41023349762 2.4001955986 0.849999964237
v 5.41023349762 2.4001955986 0.861000001431
v 5.40736532211 2.39343142509 0.849999964237
v 5.40736532211 2.39343142509 0.861000001431
v 5.40542411804 2.38634538651 0.849999964237
v 5.40542411804 2.38634538651 0.861000001431
v 5.40444469452 2.37906360626 0.849999964237
v 5.40444469452 2.37906360626 0.861000001431
v 5.40444469452 2.37171649933 0.849999964237
v 5.40444469452 2.37171649933 0.861000001431
v 5.40542411804 2.36443471909 0.849999964237
v 5.40542411804 2.36443471909 0.861000001431
v 5.40736532211 2.3573486805 0.849999964237
v 5.40736532211 2.3573486805 0.861000001431
v 5.41023349762 2.35058450699 0.849999964237
v 5.41023349762 2.35058450699 0.861000001431
v 5.41397762299 2.34426283836 0.849999964237
v 5.41397762299 2.34426283836 0.861000001431
v 5.41853141785 2.33849692345 0.849999964237
v 5.41853141785 2.33849692345 0.861000001431
v 5.42381238937 2.33338904381 0.849999964237
v 5.42381238937 2.33338904381 0.861000001431
v 5.42972755432 2.3290309906 0.849999964237
v 5.42972755432 2.3290309906 0.861000001431
v 5.436170578 2.32550024986 0.849999964237
v 5.436170578 2.32550024986 0.861000001431
v 5.4430270195 2.32285952568 0.849999964237
v 5.4430270195 2.32285952568 0.861000001431
v 5.45017385483 2.32115626335 0.849999964237
v 5.45017385483 2.32115626335 0.861000001431
v 5.4574842453 2.32042074203 0.849999964237
v 5.4574842453 2.32042074203 0.861000001431
v 5.4648270607 2.32066607475 0.849999964237
v 5.4648270607 2.32066607475 0.861000001431
v 5.47207212448 2.32188844681 0.849999964237
v 5.47207212448 2.32188844681 0.861000001431
v 5.4790892601 2.32406520844 0.849999964237
v 5.4790892601 2.32406520844 0.861000001431
v 5.48575401306 2.32715797424 0.849999964237
v 5.48575401306 2.32715797424 0.861000001431
v 5.49194669724 2.3311111927 0.849999964237
v 5.49194669724 2.3311111927 0.861000001431
v 5.49755764008 2.33585476875 0.849999964237
v 5.49755764008 2.33585476875 0.861000001431
v 5.50248575211 2.34130382538 0.849999964237
v 5.50248575211 2.34130382538 0.861000001431
v 5.50664424896 2.34736132622 0.849999964237
v 5.50664424896 2.34736132622 0.861000001431
v 5.50995731354 2.3539185524 0.849999964237
v 5.50995731354 2.3539185524 0.861000001431
v 5.51236772537 2.36085939407 0.849999964237
v 5.51236772537 2.36085939407 0.861000001431
v 5.94684410095 2.11805915833 0.849999964237
v 5.94684410095 2.11805915833 0.861000001431
v 5.94733476639 2.1253900528 0.849999964237
v 5.94733476639 2.1253900528 0.861000001431
v 5.94684410095 2.13272094727 0.849999964237
v 5.94684410095 2.13272094727 0.861000001431
v 5.94538068771 2.13992071152 0.849999964237
v 5.94538068771 2.13992071152 0.861000001431
v 5.94297075272 2.14686155319 0.849999964237
v 5.94297075272 2.14686155319 0.861000001431
v 5.9396572113 2.15341877937 0.849999964237
v 5.9396572113 2.15341877937 0.861000001431
v 5.93549919128 2.15947628021 0.849999964237
v 5.93549919128 2.15947628021 0.861000001431
v 5.93057060242 2.16492533684 0.849999964237
v 5.93057060242 2.16492533684 0.861000001431
v 5.92496013641 2.16966891289 0.849999964237
v 5.92496013641 2.16966891289 0.861000001431
v 5.9187669754 2.17362213135 0.849999964237
v 5.9187669754 2.17362213135 0.861000001431
v 5.91210269928 2.17671489716 0.849999964237
v 5.91210269928 2.17671489716 0.861000001431
v 5.90508508682 2.17889165878 0.849999964237
v 5.90508508682 2.17889165878 0.861000001431
v 5.89784049988 2.18011403084 0.849999964237
v 5.89784049988 2.18011403084 0.861000001431
v 5.89049720764 2.18035936356 0.849999964237
v 5.89049720764 2.18035936356 0.861000001431
v 5.88318681717 2.17962384224 0.849999964237
v 5.88318681717 2.17962384224 0.861000001431
v 5.87603998184 2.17792057991 0.849999964237
v 5.87603998184 2.17792057991 0.861000001431
v 5.86918354034 2.17527985573 0.849999964237
v 5.86918354034 2.17527985573 0.861000001431
v 5.86274003983 2.17174911499 0.849999964237
v 5.86274003983 2.17174911499 0.861000001431
v 5.85682582855 2.16739106178 0.849999964237
v 5.85682582855 2.16739106178 0.861000001431
v 5.85154390335 2.16228318214 0.849999964237
v 5.85154390335 2.16228318214 0.861000001431
v 5.84699058533 2.15651726723 0.849999964237
v 5.84699058533 2.15651726723 0.861000001431
v 5.84324645996 2.1501955986 0.849999964237
v 5.84324645996 2.1501955986 0.861000001431
v 5.84037828445 2.14343142509 0.849999964237
v 5.84037828445 2.14343142509 0.861000001431
v 5.83843708038 2.13634538651 0.849999964237
v 5.83843708038 2.13634538651 0.861000001431
v 5.8374581337 2.12906360626 0.849999964237
v 5.8374581337 2.12906360626 0.861000001431
v 5.8374581337 2.12171649933 0.849999964237
v 5.8374581337 2.12171649933 0.861000001431
v 5.83843708038 2.11443471909 0.849999964237
v 5.83843708038 2.11443471909 0.861000001431
v 5.84037828445 2.1073486805 0.849999964237
v 5.84037828445 2.1073486805 0.861000001431
v 5.84324645996 2.10058450699 0.849999964237
v 5.84324645996 2.10058450699 0.861000001431
v 5.84699058533 2.09426283836 0.849999964237
v 5.84699058533 2.09426283836 0.861000001431
v 5.85154390335 2.08849692345 0.849999964237
v 5.85154390335 2.08849692345 0.861000001431
v 5.85682582855 2.08338904381 0.849999964237
v 5.85682582855 2.08338904381 0.861000001431
v 5.86274003983 2.0790309906 0.849999964237
v 5.86274003983 2.0790309906 0.861000001431
v 5.86918354034 2.07550024986 0.849999964237
v 5.86918354034 2.07550024986 0.861000001431
v 5.87603998184 2.07285952568 0.849999964237
v 5.87603998184 2.07285952568 0.861000001431
v 5.88318681717 2.07115626335 0.849999964237
v 5.88318681717 2.07115626335 0.861000001431
v 5.89049720764 2.07042074203 0.849999964237
v 5.89049720764 2.07042074203 0.861000001431
v 5.89784049988 2.07066607475 0.849999964237
v 5.89784049988 2.07066607475 0.861000001431
v 5.90508508682 2.07188844681 0.849999964237
v 5.90508508682 2.07188844681 0.861000001431
v 5.91210269928 2.07406520844 0.849999964237
v 5.91210269928 2.07406520844 0.861000001431
v 5.9187669754 2.07715797424 0.849999964237
v 5.9187669754 2.07715797424 0.861000001431
v 5.92496013641 2.0811111927 0.849999964237
v 5.92496013641 2.0811111927 0.861000001431
v 5.93057060242 2.08585476875 0.849999964237
v 5.93057060242 2.08585476875 0.861000001431
v 5.93549919128 2.09130382538 0.849999964237
v 5.93549919128 2.09130382538 0.861000001431
v 5.9396572113 2.09736132622 0.849999964237
v 5.9396572113 2.09736132622 0.861000001431
v 5.94297075272 2.1039185524 0.849999964237
v 5.94297075272 2.1039185524 0.861000001431
v 5.94538068771 2.11085939407 0.849999964237
v 5.94538068771 2.11085939407 0.861000001431
v 5.95006990433 2.02539014816 0.861000001431
v 5.34362745285 2.37500071526 0.861000001431
v 5.95006990433 2.02539014816 0.849999964237
v 5.34362745285 2.37500071526 0.849999964237
v 5.95006990433 2.72538995743 0.861000001431
v 5.95006990433 2.72538995743 0.849999964237
v 5.91942834854 2.17325377464 0.861000001431
v 5.91942834854 2.17325377464 0.723999977112
v 5.91294908524 2.17638087273 0.861000001431
v 5.91942834854 2.17325377464 0.587000012398
v 5.91294908524 2.17638087273 0.449999988079
v 5.91942834854 2.17325377464 0.449999988079
v 5.92544364929 2.16930794716 0.449999988079
v 5.92544364929 2.16930794716 0.587000012398
v 5.93089294434 2.16461086273 0.449999988079
v 5.93089294434 2.16461086273 0.587000012398
v 5.93568277359 2.15924263 0.449999988079
v 5.93568277359 2.15924263 0.587000012398
v 5.93973064423 2.15329504013 0.449999988079
v 5.93973064423 2.15329504013 0.587000012398
v 5.94296741486 2.14687013626 0.449999988079
v 5.94296741486 2.14687013626 0.587000012398
v 5.94533729553 2.14007759094 0.449999988079
v 5.94533729553 2.14007759094 0.587000012398
v 5.94680118561 2.13303375244 0.449999988079
v 5.94680118561 2.13303375244 0.587000012398
v 5.94733285904 2.12585926056 0.449999988079
v 5.94733285904 2.12585926056 0.587000012398
v 5.94692373276 2.11867666245 0.449999988079
v 5.94692373276 2.11867666245 0.587000012398
v 5.94558048248 2.11160898209 0.449999988079
v 5.94558048248 2.11160898209 0.587000012398
v 5.9433259964 2.1047770977 0.449999988079
v 5.9433259964 2.1047770977 0.587000012398
v 5.94019985199 2.0982978344 0.449999988079
v 5.94019985199 2.0982978344 0.587000012398
v 5.93625402451 2.09228205681 0.449999988079
v 5.93625402451 2.09228205681 0.587000012398
v 5.93155670166 2.08683300018 0.449999988079
v 5.93155670166 2.08683300018 0.587000012398
v 5.92618846893 2.08204340935 0.449999988079
v 5.92618846893 2.08204340935 0.587000012398
v 5.9202413559 2.07799553871 0.449999988079
v 5.9202413559 2.07799553871 0.587000012398
v 5.91381645203 2.07475852966 0.449999988079
v 5.91381645203 2.07475852966 0.587000012398
v 5.90702390671 2.07238793373 0.449999988079
v 5.90702390671 2.07238793373 0.587000012398
v 5.89998006821 2.07092404366 0.449999988079
v 5.89998006821 2.07092404366 0.587000012398
v 5.89280557632 2.07039189339 0.449999988079
v 5.89280557632 2.07039189339 0.587000012398
v 5.88562297821 2.07080125809 0.449999988079
v 5.88562297821 2.07080125809 0.587000012398
v 5.87855529785 2.07214426994 0.449999988079
v 5.87855529785 2.07214426994 0.587000012398
v 5.87172317505 2.07439827919 0.449999988079
v 5.87855529785 2.07214426994 0.723999977112
v 5.87172317505 2.07439827919 0.861000001431
v 5.87855529785 2.07214426994 0.861000001431
v 5.88562297821 2.07080125809 0.861000001431
v 5.88562297821 2.07080125809 0.723999977112
v 5.89280557632 2.07039189339 0.861000001431
v 5.89280557632 2.07039189339 0.723999977112
v 5.89998006821 2.07092404366 0.861000001431
v 5.89998006821 2.07092404366 0.723999977112
v 5.90702390671 2.07238793373 0.861000001431
v 5.90702390671 2.07238793373 0.723999977112
v 5.91381645203 2.07475852966 0.861000001431
v 5.91381645203 2.07475852966 0.723999977112
v 5.9202413559 2.07799553871 0.861000001431
v 5.9202413559 2.07799553871 0.723999977112
v 5.92618846893 2.08204340935 0.861000001431
v 5.92618846893 2.08204340935 0.723999977112
v 5.93155670166 2.08683300018 0.861000001431
v 5.93155670166 2.08683300018 0.723999977112
v 5.93625402451 2.09228205681 0.861000001431
v 5.93625402451 2.09228205681 0.723999977112
v 5.94019985199 2.0982978344 0.861000001431
v 5.94019985199 2.0982978344 0.723999977112
v 5.9433259964 2.1047770977 0.861000001431
v 5.9433259964 2.1047770977 0.723999977112
v 5.94558048248 2.11160898209 0.861000001431
v 5.94558048248 2.11160898209 0.723999977112
v 5.94692373276 2.11867666245 0.861000001431
v 5.94692373276 2.11867666245 0.723999977112
v 5.94733285904 2.12585926056 0.861000001431
v 5.94733285904 2.12585926056 0.723999977112
v 5.94680118561 2.13303375244 0.861000001431
v 5.94680118561 2.13303375244 0.723999977112
v 5.94533729553 2.14007759094 0.861000001431
v 5.94533729553 2.14007759094 0.723999977112
v 5.94296741486 2.14687013626 0.861000001431
v 5.94296741486 2.14687013626 0.723999977112
v 5.93973064423 2.15329504013 0.861000001431
v 5.93973064423 2.15329504013 0.723999977112
v 5.93568277359 2.15924263 0.861000001431
v 5.93568277359 2.15924263 0.723999977112
v 5.93089294434 2.16461086273 0.861000001431
v 5.93089294434 2.16461086273 0.723999977112
v 5.92544364929 2.16930794716 0.861000001431
v 5.92544364929 2.16930794716 0.723999977112
v 5.86524343491 2.07752513885 0.861000001431
v 5.86524343491 2.07752513885 0.723999977112
v 5.86524343491 2.07752513885 0.587000012398
v 5.86524343491 2.07752513885 0.449999988079
v 5.85922813416 2.08147072792 0.449999988079
v 5.85922813416 2.08147072792 0.587000012398
v 5.85377836227 2.08616781235 0.449999988079
v 5.85377836227 2.08616781235 0.587000012398
v 5.84898853302 2.09153604507 0.449999988079
v 5.84898853302 2.09153604507 0.587000012398
v 5.84494066238 2.09748363495 0.449999988079
v 5.84494066238 2.09748363495 0.587000012398
v 5.84170341492 2.10390877724 0.449999988079
v 5.84170341492 2.10390877724 0.587000012398
v 5.8393330574 2.11070132256 0.449999988079
v 5.8393330574 2.11070132256 0.587000012398
v 5.83786916733 2.11774516106 0.449999988079
v 5.83786916733 2.11774516106 0.587000012398
v 5.83733701706 2.12492012978 0.449999988079
v 5.83733701706 2.12492012978 0.587000012398
v 5.83774614334 2.13210296631 0.449999988079
v 5.83774614334 2.13210296631 0.587000012398
v 5.83908939362 2.13917088509 0.449999988079
v 5.83908939362 2.13917088509 0.587000012398
v 5.8413438797 2.14600300789 0.449999988079
v 5.8413438797 2.14600300789 0.587000012398
v 5.84447050095 2.15248227119 0.449999988079
v 5.84447050095 2.15248227119 0.587000012398
v 5.84841632843 2.1584982872 0.449999988079
v 5.84841632843 2.1584982872 0.587000012398
v 5.85311365128 2.16394758224 0.449999988079
v 5.85311365128 2.16394758224 0.587000012398
v 5.85848236084 2.16873717308 0.449999988079
v 5.85848236084 2.16873717308 0.587000012398
v 5.86442947388 2.17278504372 0.449999988079
v 5.86442947388 2.17278504372 0.587000012398
v 5.87085485458 2.17602205276 0.449999988079
v 5.87085485458 2.17602205276 0.587000012398
v 5.8776473999 2.1783926487 0.449999988079
v 5.8776473999 2.1783926487 0.587000012398
v 5.88469171524 2.17985630035 0.449999988079
v 5.88469171524 2.17985630035 0.587000012398
v 5.89186620712 2.1803882122 0.449999988079
v 5.89186620712 2.1803882122 0.587000012398
v 5.89904928207 2.17997860909 0.449999988079
v 5.89904928207 2.17997860909 0.587000012398
v 5.90611696243 2.17863512039 0.449999988079
v 5.90611696243 2.17863512039 0.587000012398
v 5.90611696243 2.17863512039 0.723999977112
v 5.89904928207 2.17997860909 0.861000001431
v 5.89904928207 2.17997860909 0.723999977112
v 5.89186620712 2.1803882122 0.861000001431
v 5.89186620712 2.1803882122 0.723999977112
v 5.88469171524 2.17985630035 0.861000001431
v 5.88469171524 2.17985630035 0.723999977112
v 5.8776473999 2.1783926487 0.861000001431
v 5.8776473999 2.1783926487 0.723999977112
v 5.87085485458 2.17602205276 0.861000001431
v 5.87085485458 2.17602205276 0.723999977112
v 5.86442947388 2.17278504372 0.861000001431
v 5.86442947388 2.17278504372 0.723999977112
v 5.85848236084 2.16873717308 0.861000001431
v 5.85848236084 2.16873717308 0.723999977112
v 5.85311365128 2.16394758224 0.861000001431
v 5.85311365128 2.16394758224 0.723999977112
v 5.84841632843 2.1584982872 0.861000001431
v 5.84841632843 2.1584982872 0.723999977112
v 5.84447050095 2.15248227119 0.861000001431
v 5.84447050095 2.15248227119 0.723999977112
v 5.8413438797 2.14600300789 0.861000001431
v 5.8413438797 2.14600300789 0.723999977112
v 5.83908939362 2.13917088509 0.861000001431
v 5.83908939362 2.13917088509 0.723999977112
v 5.83774614334 2.13210296631 0.861000001431
v 5.83774614334 2.13210296631 0.723999977112
v 5.83733701706 2.12492012978 0.861000001431
v 5.83733701706 2.12492012978 0.723999977112
v 5.83786916733 2.11774516106 0.861000001431
v 5.83786916733 2.11774516106 0.723999977112
v 5.8393330574 2.11070132256 0.861000001431
v 5.8393330574 2.11070132256 0.723999977112
v 5.84170341492 2.10390877724 0.861000001431
v 5.84170341492 2.10390877724 0.723999977112
v 5.84494066238 2.09748363495 0.861000001431
v 5.84494066238 2.09748363495 0.723999977112
v 5.84898853302 2.09153604507 0.861000001431
v 5.84898853302 2.09153604507 0.723999977112
v 5.85377836227 2.08616781235 0.861000001431
v 5.85377836227 2.08616781235 0.723999977112
v 5.85922813416 2.08147072792 0.861000001431
v 5.85922813416 2.08147072792 0.723999977112
v 5.40481281281 2.36805868149 0.449999988079
v 5.40481281281 2.36805868149 0.587000012398
v 5.40432214737 2.37538957596 0.449999988079
v 5.40432214737 2.37538957596 0.587000012398
v 5.40481281281 2.38272047043 0.449999988079
v 5.40481281281 2.38272047043 0.587000012398
v 5.40627622604 2.38992023468 0.449999988079
v 5.40627622604 2.38992023468 0.587000012398
v 5.40868663788 2.39686107635 0.449999988079
v 5.40868663788 2.39686107635 0.587000012398
v 5.41200017929 2.40341830254 0.449999988079
v 5.41200017929 2.40341830254 0.587000012398
v 5.41615819931 2.40947580338 0.449999988079
v 5.41615819931 2.40947580338 0.587000012398
v 5.42108631134 2.41492486 0.449999988079
v 5.42108631134 2.41492486 0.587000012398
v 5.42669725418 2.41966843605 0.449999988079
v 5.42669725418 2.41966843605 0.587000012398
v 5.43288993835 2.42362165451 0.449999988079
v 5.43288993835 2.42362165451 0.587000012398
v 5.43955469131 2.42671442032 0.449999988079
v 5.43955469131 2.42671442032 0.587000012398
v 5.44657230377 2.42889118195 0.449999988079
v 5.44657230377 2.42889118195 0.587000012398
v 5.45381689072 2.430113554 0.449999988079
v 5.45381689072 2.430113554 0.587000012398
v 5.46116018295 2.43035888672 0.449999988079
v 5.46116018295 2.43035888672 0.587000012398
v 5.46847009659 2.4296233654 0.449999988079
v 5.46847009659 2.4296233654 0.587000012398
v 5.47561740875 2.42792010307 0.449999988079
v 5.47561740875 2.42792010307 0.587000012398
v 5.48247385025 2.42527937889 0.449999988079
v 5.48247385025 2.42527937889 0.587000012398
v 5.48891639709 2.42174863815 0.449999988079
v 5.48891639709 2.42174863815 0.587000012398
v 5.49483156204 2.41739058495 0.449999988079
v 5.49483156204 2.41739058495 0.587000012398
v 5.50011348724 2.41228270531 0.449999988079
v 5.50011348724 2.41228270531 0.587000012398
v 5.50466632843 2.40651679039 0.449999988079
v 5.50466632843 2.40651679039 0.587000012398
v 5.5084104538 2.40019512177 0.449999988079
v 5.5084104538 2.40019512177 0.587000012398
v 5.5112786293 2.39343070984 0.449999988079
v 5.5112786293 2.39343070984 0.587000012398
v 5.51322031021 2.38634490967 0.449999988079
v 5.51322031021 2.38634490967 0.587000012398
v 5.5141992569 2.37906312943 0.449999988079
v 5.5141992569 2.37906312943 0.587000012398
v 5.5141992569 2.37171602249 0.449999988079
v 5.5141992569 2.37171602249 0.587000012398
v 5.51322031021 2.36443424225 0.449999988079
v 5.51322031021 2.36443424225 0.587000012398
v 5.5112786293 2.35734820366 0.449999988079
v 5.5112786293 2.35734820366 0.587000012398
v 5.5084104538 2.35058379173 0.449999988079
v 5.5084104538 2.35058379173 0.587000012398
v 5.50466632843 2.34426236153 0.449999988079
v 5.50466632843 2.34426236153 0.587000012398
v 5.50011348724 2.33849644661 0.449999988079
v 5.50011348724 2.33849644661 0.587000012398
v 5.49483156204 2.33338856697 0.449999988079
v 5.49483156204 2.33338856697 0.587000012398
v 5.48891639709 2.32903051376 0.449999988079
v 5.48891639709 2.32903051376 0.587000012398
v 5.48247385025 2.32549977303 0.449999988079
v 5.48247385025 2.32549977303 0.587000012398
v 5.47561740875 2.32285881042 0.449999988079
v 5.47561740875 2.32285881042 0.587000012398
v 5.46847009659 2.32115578651 0.449999988079
v 5.46847009659 2.32115578651 0.587000012398
v 5.46116018295 2.3204202652 0.449999988079
v 5.46116018295 2.3204202652 0.587000012398
v 5.45381689072 2.32066559792 0.449999988079
v 5.45381689072 2.32066559792 0.587000012398
v 5.44657230377 2.32188796997 0.449999988079
v 5.44657230377 2.32188796997 0.587000012398
v 5.43955469131 2.3240647316 0.449999988079
v 5.43955469131 2.3240647316 0.587000012398
v 5.43288993835 2.32715749741 0.449999988079
v 5.43288993835 2.32715749741 0.587000012398
v 5.42669725418 2.33111071587 0.449999988079
v 5.42669725418 2.33111071587 0.587000012398
v 5.42108631134 2.3358540535 0.449999988079
v 5.42108631134 2.3358540535 0.587000012398
v 5.41615819931 2.34130334854 0.449999988079
v 5.41615819931 2.34130334854 0.587000012398
v 5.41200017929 2.34736084938 0.449999988079
v 5.41200017929 2.34736084938 0.587000012398
v 5.40868663788 2.35391807556 0.449999988079
v 5.40868663788 2.35391807556 0.587000012398
v 5.40627622604 2.36085891724 0.449999988079
v 5.40627622604 2.36085891724 0.587000012398
v 5.40481281281 2.38272047043 0.861000001431
v 5.40481281281 2.38272047043 0.723999977112
v 5.40432214737 2.37538957596 0.861000001431
v 5.40432214737 2.37538957596 0.723999977112
v 5.40481281281 2.36805868149 0.861000001431
v 5.40481281281 2.36805868149 0.723999977112
v 5.40627622604 2.36085891724 0.861000001431
v 5.40627622604 2.36085891724 0.723999977112
v 5.40868663788 2.35391807556 0.861000001431
v 5.40868663788 2.35391807556 0.723999977112
v 5.41200017929 2.34736084938 0.861000001431
v 5.41200017929 2.34736084938 0.723999977112
v 5.41615819931 2.34130334854 0.861000001431
v 5.41615819931 2.34130334854 0.723999977112
v 5.42108631134 2.3358540535 0.861000001431
v 5.42108631134 2.3358540535 0.723999977112
v 5.42669725418 2.33111071587 0.861000001431
v 5.42669725418 2.33111071587 0.723999977112
v 5.43288993835 2.32715749741 0.861000001431
v 5.43288993835 2.32715749741 0.723999977112
v 5.43955469131 2.3240647316 0.861000001431
v 5.43955469131 2.3240647316 0.723999977112
v 5.44657230377 2.32188796997 0.861000001431
v 5.44657230377 2.32188796997 0.723999977112
v 5.45381689072 2.32066559792 0.861000001431
v 5.45381689072 2.32066559792 0.723999977112
v 5.46116018295 2.3204202652 0.861000001431
v 5.46116018295 2.3204202652 0.723999977112
v 5.46847009659 2.32115578651 0.861000001431
v 5.46847009659 2.32115578651 0.723999977112
v 5.47561740875 2.32285881042 0.861000001431
v 5.47561740875 2.32285881042 0.723999977112
v 5.48247385025 2.32549977303 0.861000001431
v 5.48247385025 2.32549977303 0.723999977112
v 5.48891639709 2.32903051376 0.861000001431
v 5.48891639709 2.32903051376 0.723999977112
v 5.49483156204 2.33338856697 0.861000001431
v 5.49483156204 2.33338856697 0.723999977112
v 5.50011348724 2.33849644661 0.861000001431
v 5.50011348724 2.33849644661 0.723999977112
v 5.50466632843 2.34426236153 0.861000001431
v 5.50466632843 2.34426236153 0.723999977112
v 5.5084104538 2.35058379173 0.861000001431
v 5.5084104538 2.35058379173 0.723999977112
v 5.5112786293 2.35734820366 0.861000001431
v 5.5112786293 2.35734820366 0.723999977112
v 5.51322031021 2.36443424225 0.861000001431
v 5.51322031021 2.36443424225 0.723999977112
v 5.5141992569 2.37171602249 0.861000001431
v 5.5141992569 2.37171602249 0.723999977112
v 5.5141992569 2.37906312943 0.861000001431
v 5.5141992569 2.37906312943 0.723999977112
v 5.51322031021 2.38634490967 0.861000001431
v 5.51322031021 2.38634490967 0.723999977112
v 5.5112786293 2.39343070984 0.861000001431
v 5.5112786293 2.39343070984 0.723999977112
v 5.5084104538 2.40019512177 0.861000001431
v 5.5084104538 2.40019512177 0.723999977112
v 5.50466632843 2.40651679039 0.861000001431
v 5.50466632843 2.40651679039 0.723999977112
v 5.50011348724 2.41228270531 0.861000001431
v 5.50011348724 2.41228270531 0.723999977112
v 5.49483156204 2.41739058495 0.861000001431
v 5.49483156204 2.41739058495 0.723999977112
v 5.48891639709 2.42174863815 0.861000001431
v 5.48891639709 2.42174863815 0.723999977112
v 5.48247385025 2.42527937889 0.861000001431
v 5.48247385025 2.42527937889 0.723999977112
v 5.47561740875 2.42792010307 0.861000001431
v 5.47561740875 2.42792010307 0.723999977112
v 5.46847009659 2.4296233654 0.861000001431
v 5.46847009659 2.4296233654 0.723999977112
v 5.46116018295 2.43035888672 0.861000001431
v 5.46116018295 2.43035888672 0.723999977112
v 5.45381689072 2.430113554 0.861000001431
v 5.45381689072 2.430113554 0.723999977112
v 5.44657230377 2.42889118195 0.861000001431
v 5.44657230377 2.42889118195 0.723999977112
v 5.43955469131 2.42671442032 0.861000001431
v 5.43955469131 2.42671442032 0.723999977112
v 5.43288993835 2.42362165451 0.861000001431
v 5.43288993835 2.42362165451 0.723999977112
v 5.42669725418 2.41966843605 0.861000001431
v 5.42669725418 2.41966843605 0.723999977112
v 5.42108631134 2.41492486 0.861000001431
v 5.42108631134 2.41492486 0.723999977112
v 5.41615819931 2.40947580338 0.861000001431
v 5.41615819931 2.40947580338 0.723999977112
v 5.41200017929 2.40341830254 0.861000001431
v 5.41200017929 2.40341830254 0.723999977112
v 5.40868663788 2.39686107635 0.861000001431
v 5.40868663788 2.39686107635 0.723999977112
v 5.40627622604 2.38992023468 0.861000001431
v 5.40627622604 2.38992023468 0.723999977112
