# Wavefront OBJ file written 2026-04-28T13:02:16
o QUB_Scaled3_edgeMesh

# points : 758
# lines  : 2268

# <points count="758">
v 5.90611696243 2.17863512039 0.861000001431
v 5.83782577515 2.61805915833 0.449999988079
v 5.83782577515 2.61805915833 0.583333313465
v 5.83733510971 2.6253900528 0.449999988079
v 5.83733510971 2.6253900528 0.583333313465
v 5.83782577515 2.63272094727 0.449999988079
v 5.83782577515 2.63272094727 0.583333313465
v 5.83928918839 2.63992071152 0.449999988079
v 5.83928918839 2.63992071152 0.583333313465
v 5.84169912338 2.64686155319 0.449999988079
v 5.84169912338 2.64686155319 0.583333313465
v 5.84501266479 2.65341877937 0.449999988079
v 5.84501266479 2.65341877937 0.583333313465
v 5.84917068481 2.65947628021 0.449999988079
v 5.84917068481 2.65947628021 0.583333313465
v 5.85409975052 2.66492533684 0.449999988079
v 5.85409975052 2.66492533684 0.583333313465
v 5.85970973969 2.66966891289 0.449999988079
v 5.85970973969 2.66966891289 0.583333313465
v 5.8659029007 2.67362213135 0.449999988079
v 5.8659029007 2.67362213135 0.583333313465
v 5.87256717682 2.67671489716 0.449999988079
v 5.87256717682 2.67671489716 0.583333313465
v 5.87958478928 2.67889165878 0.449999988079
v 5.87958478928 2.67889165878 0.583333313465
v 5.88682937622 2.68011403084 0.449999988079
v 5.88682937622 2.68011403084 0.583333313465
v 5.89417266846 2.68035936356 0.449999988079
v 5.89417266846 2.68035936356 0.583333313465
v 5.90148305893 2.67962384224 0.449999988079
v 5.90148305893 2.67962384224 0.583333313465
v 5.90863037109 2.67792057991 0.449999988079
v 5.90863037109 2.67792057991 0.583333313465
v 5.91548633575 2.67527985573 0.449999988079
v 5.91548633575 2.67527985573 0.583333313465
v 5.92192983627 2.67174911499 0.449999988079
v 5.92192983627 2.67174911499 0.583333313465
v 5.92784452438 2.66739106178 0.449999988079
v 5.92784452438 2.66739106178 0.583333313465
v 5.93312597275 2.66228318214 0.449999988079
v 5.93312597275 2.66228318214 0.583333313465
v 5.93767929077 2.65651726723 0.449999988079
v 5.93767929077 2.65651726723 0.583333313465
v 5.94142341614 2.6501955986 0.449999988079
v 5.94142341614 2.6501955986 0.583333313465
v 5.94429206848 2.64343142509 0.449999988079
v 5.94429206848 2.64343142509 0.583333313465
v 5.94623279572 2.63634538651 0.449999988079
v 5.94623279572 2.63634538651 0.583333313465
v 5.94721221924 2.62906360626 0.449999988079
v 5.94721221924 2.62906360626 0.583333313465
v 5.94721221924 2.62171649933 0.449999988079
v 5.94721221924 2.62171649933 0.583333313465
v 5.94623279572 2.61443471909 0.449999988079
v 5.94623279572 2.61443471909 0.583333313465
v 5.94429206848 2.6073486805 0.449999988079
v 5.94429206848 2.6073486805 0.583333313465
v 5.94142341614 2.60058450699 0.449999988079
v 5.94142341614 2.60058450699 0.583333313465
v 5.93767929077 2.59426283836 0.449999988079
v 5.93767929077 2.59426283836 0.583333313465
v 5.93312597275 2.58849692345 0.449999988079
v 5.93312597275 2.58849692345 0.583333313465
v 5.92784452438 2.58338904381 0.449999988079
v 5.92784452438 2.58338904381 0.583333313465
v 5.92192983627 2.5790309906 0.449999988079
v 5.92192983627 2.5790309906 0.583333313465
v 5.91548633575 2.57550024986 0.449999988079
v 5.91548633575 2.57550024986 0.583333313465
v 5.90863037109 2.57285952568 0.449999988079
v 5.90863037109 2.57285952568 0.583333313465
v 5.90148305893 2.57115626335 0.449999988079
v 5.90148305893 2.57115626335 0.583333313465
v 5.89417266846 2.57042074203 0.449999988079
v 5.89417266846 2.57042074203 0.583333313465
v 5.88682937622 2.57066607475 0.449999988079
v 5.88682937622 2.57066607475 0.583333313465
v 5.87958478928 2.57188844681 0.449999988079
v 5.87958478928 2.57188844681 0.583333313465
v 5.87256717682 2.57406520844 0.449999988079
v 5.87256717682 2.57406520844 0.583333313465
v 5.8659029007 2.57715797424 0.449999988079
v 5.8659029007 2.57715797424 0.583333313465
v 5.85970973969 2.5811111927 0.449999988079
v 5.85970973969 2.5811111927 0.583333313465
v 5.85409975052 2.58585476875 0.449999988079
v 5.85409975052 2.58585476875 0.583333313465
v 5.84917068481 2.59130382538 0.449999988079
v 5.84917068481 2.59130382538 0.583333313465
v 5.84501266479 2.59736132622 0.449999988079
v 5.84501266479 2.59736132622 0.583333313465
v 5.84169912338 2.6039185524 0.449999988079
v 5.84169912338 2.6039185524 0.583333313465
v 5.83928918839 2.61085939407 0.449999988079
v 5.83928918839 2.61085939407 0.583333313465
v 5.94684410095 2.61805915833 0.849999964237
v 5.94721221924 2.62171649933 0.716666698456
v 5.94733476639 2.6253900528 0.849999964237
v 5.94721221924 2.62906360626 0.716666698456
v 5.94684410095 2.63272094727 0.849999964237
v 5.94623279572 2.63634538651 0.716666698456
v 5.94538068771 2.63992071152 0.849999964237
v 5.94429206848 2.64343142509 0.716666698456
v 5.94297075272 2.64686155319 0.849999964237
v 5.94142341614 2.6501955986 0.716666698456
v 5.9396572113 2.65341877937 0.849999964237
v 5.93767929077 2.65651726723 0.716666698456
v 5.93549919128 2.65947628021 0.849999964237
v 5.93312597275 2.66228318214 0.716666698456
v 5.93057060242 2.66492533684 0.849999964237
v 5.92784452438 2.66739106178 0.716666698456
v 5.92496013641 2.66966891289 0.849999964237
v 5.92192983627 2.67174911499 0.716666698456
v 5.9187669754 2.67362213135 0.849999964237
v 5.91548633575 2.67527985573 0.716666698456
v 5.91210269928 2.67671489716 0.849999964237
v 5.90863037109 2.67792057991 0.716666698456
v 5.90508508682 2.67889165878 0.849999964237
v 5.90148305893 2.67962384224 0.716666698456
v 5.89784049988 2.68011403084 0.849999964237
v 5.89417266846 2.68035936356 0.716666698456
v 5.89049720764 2.68035936356 0.849999964237
v 5.88682937622 2.68011403084 0.716666698456
v 5.88318681717 2.67962384224 0.849999964237
v 5.87958478928 2.67889165878 0.716666698456
v 5.87603998184 2.67792057991 0.849999964237
v 5.87256717682 2.67671489716 0.716666698456
v 5.86918354034 2.67527985573 0.849999964237
v 5.8659029007 2.67362213135 0.716666698456
v 5.86274003983 2.67174911499 0.849999964237
v 5.85970973969 2.66966891289 0.716666698456
v 5.85682582855 2.66739106178 0.849999964237
v 5.85409975052 2.66492533684 0.716666698456
v 5.85154390335 2.66228318214 0.849999964237
v 5.84917068481 2.65947628021 0.716666698456
v 5.84699058533 2.65651726723 0.849999964237
v 5.84501266479 2.65341877937 0.716666698456
v 5.84324645996 2.6501955986 0.849999964237
v 5.84169912338 2.64686155319 0.716666698456
v 5.84037828445 2.64343142509 0.849999964237
v 5.83928918839 2.63992071152 0.716666698456
v 5.83843708038 2.63634538651 0.849999964237
v 5.83782577515 2.63272094727 0.716666698456
v 5.8374581337 2.62906360626 0.849999964237
v 5.83733510971 2.6253900528 0.716666698456
v 5.8374581337 2.62171649933 0.849999964237
v 5.83782577515 2.61805915833 0.716666698456
v 5.83843708038 2.61443471909 0.849999964237
v 5.83928918839 2.61085939407 0.716666698456
v 5.84037828445 2.6073486805 0.849999964237
v 5.84169912338 2.6039185524 0.716666698456
v 5.84324645996 2.60058450699 0.849999964237
v 5.84501266479 2.59736132622 0.716666698456
v 5.84699058533 2.59426283836 0.849999964237
v 5.84917068481 2.59130382538 0.716666698456
v 5.85154390335 2.58849692345 0.849999964237
v 5.85409975052 2.58585476875 0.716666698456
v 5.85682582855 2.58338904381 0.849999964237
v 5.85970973969 2.5811111927 0.716666698456
v 5.86274003983 2.5790309906 0.849999964237
v 5.8659029007 2.57715797424 0.716666698456
v 5.86918354034 2.57550024986 0.849999964237
v 5.87256717682 2.57406520844 0.716666698456
v 5.87603998184 2.57285952568 0.849999964237
v 5.87958478928 2.57188844681 0.716666698456
v 5.88318681717 2.57115626335 0.849999964237
v 5.88682937622 2.57066607475 0.716666698456
v 5.89049720764 2.57042074203 0.849999964237
v 5.89417266846 2.57042074203 0.716666698456
v 5.89784049988 2.57066607475 0.849999964237
v 5.90148305893 2.57115626335 0.716666698456
v 5.90508508682 2.57188844681 0.849999964237
v 5.90863037109 2.57285952568 0.716666698456
v 5.91210269928 2.57406520844 0.849999964237
v 5.91548633575 2.57550024986 0.716666698456
v 5.9187669754 2.57715797424 0.849999964237
v 5.92192983627 2.5790309906 0.716666698456
v 5.92496013641 2.5811111927 0.849999964237
v 5.92784452438 2.58338904381 0.716666698456
v 5.93057060242 2.58585476875 0.849999964237
v 5.93312597275 2.58849692345 0.716666698456
v 5.93549919128 2.59130382538 0.849999964237
v 5.93767929077 2.59426283836 0.716666698456
v 5.9396572113 2.59736132622 0.849999964237
v 5.94142341614 2.60058450699 0.716666698456
v 5.94297075272 2.6039185524 0.849999964237
v 5.94429206848 2.6073486805 0.716666698456
v 5.94538068771 2.61085939407 0.849999964237
v 5.94623279572 2.61443471909 0.716666698456
v 5.51383113861 2.36805915833 0.849999964237
v 5.51383113861 2.36805915833 0.861000001431
v 5.51432180405 2.3753900528 0.849999964237
v 5.51432180405 2.3753900528 0.861000001431
v 5.51383113861 2.38272094727 0.849999964237
v 5.51383113861 2.38272094727 0.861000001431
v 5.51236772537 2.38992071152 0.849999964237
v 5.51236772537 2.38992071152 0.861000001431
v 5.50995731354 2.39686155319 0.849999964237
v 5.50995731354 2.39686155319 0.861000001431
v 5.50664424896 2.40341877937 0.849999964237
v 5.50664424896 2.40341877937 0.861000001431
v 5.50248575211 2.40947628021 0.849999964237
v 5.50248575211 2.40947628021 0.861000001431
v 5.49755764008 2.41492533684 0.849999964237
v 5.49755764008 2.41492533684 0.861000001431
v 5.49194669724 2.41966891289 0.849999964237
v 5.49194669724 2.41966891289 0.861000001431
v 5.48575401306 2.42362213135 0.849999964237
v 5.48575401306 2.42362213135 0.861000001431
v 5.4790892601 2.42671489716 0.849999964237
v 5.4790892601 2.42671489716 0.861000001431
v 5.47207212448 2.42889165878 0.849999964237
v 5.47207212448 2.42889165878 0.861000001431
v 5.4648270607 2.43011403084 0.849999964237
v 5.4648270607 2.43011403084 0.861000001431
v 5.4574842453 2.43035936356 0.849999964237
v 5.4574842453 2.43035936356 0.861000001431
v 5.45017385483 2.42962384224 0.849999964237
v 5.45017385483 2.42962384224 0.861000001431
v 5.4430270195 2.42792057991 0.849999964237
v 5.4430270195 2.42792057991 0.861000001431
v 5.436170578 2.42527985573 0.849999964237
v 5.436170578 2.42527985573 0.861000001431
v 5.42972755432 2.42174911499 0.849999964237
v 5.42972755432 2.42174911499 0.861000001431
v 5.42381238937 2.41739106178 0.849999964237
v 5.42381238937 2.41739106178 0.861000001431
v 5.41853141785 2.41228318214 0.849999964237
v 5.41853141785 2.41228318214 0.861000001431
v 5.41397762299 2.40651726723 0.849999964237
v 5.41397762299 2.40651726723 0.861000001431
v 5.41023349762 2.4001955986 0.849999964237
v 5.41023349762 2.4001955986 0.861000001431
v 5.40736532211 2.39343142509 0.849999964237
v 5.40736532211 2.39343142509 0.861000001431
v 5.40542411804 2.38634538651 0.849999964237
v 5.40542411804 2.38634538651 0.861000001431
v 5.40444469452 2.37906360626 0.849999964237
v 5.40444469452 2.37906360626 0.861000001431
v 5.40444469452 2.37171649933 0.849999964237
v 5.40444469452 2.37171649933 0.861000001431
v 5.40542411804 2.36443471909 0.849999964237
v 5.40542411804 2.36443471909 0.861000001431
v 5.40736532211 2.3573486805 0.849999964237
v 5.40736532211 2.3573486805 0.861000001431
v 5.41023349762 2.35058450699 0.849999964237
v 5.41023349762 2.35058450699 0.861000001431
v 5.41397762299 2.34426283836 0.849999964237
v 5.41397762299 2.34426283836 0.861000001431
v 5.41853141785 2.33849692345 0.849999964237
v 5.41853141785 2.33849692345 0.861000001431
v 5.42381238937 2.33338904381 0.849999964237
v 5.42381238937 2.33338904381 0.861000001431
v 5.42972755432 2.3290309906 0.849999964237
v 5.42972755432 2.3290309906 0.861000001431
v 5.436170578 2.32550024986 0.849999964237
v 5.436170578 2.32550024986 0.861000001431
v 5.4430270195 2.32285952568 0.849999964237
v 5.4430270195 2.32285952568 0.861000001431
v 5.45017385483 2.32115626335 0.849999964237
v 5.45017385483 2.32115626335 0.861000001431
v 5.4574842453 2.32042074203 0.849999964237
v 5.4574842453 2.32042074203 0.861000001431
v 5.4648270607 2.32066607475 0.849999964237
v 5.4648270607 2.32066607475 0.861000001431
v 5.47207212448 2.32188844681 0.849999964237
v 5.47207212448 2.32188844681 0.861000001431
v 5.4790892601 2.32406520844 0.849999964237
v 5.4790892601 2.32406520844 0.861000001431
v 5.48575401306 2.32715797424 0.849999964237
v 5.48575401306 2.32715797424 0.861000001431
v 5.49194669724 2.3311111927 0.849999964237
v 5.49194669724 2.3311111927 0.861000001431
v 5.49755764008 2.33585476875 0.849999964237
v 5.49755764008 2.33585476875 0.861000001431
v 5.50248575211 2.34130382538 0.849999964237
v 5.50248575211 2.34130382538 0.861000001431
v 5.50664424896 2.34736132622 0.849999964237
v 5.50664424896 2.34736132622 0.861000001431
v 5.50995731354 2.3539185524 0.849999964237
v 5.50995731354 2.3539185524 0.861000001431
v 5.51236772537 2.36085939407 0.849999964237
v 5.51236772537 2.36085939407 0.861000001431
v 5.94684410095 2.11805915833 0.849999964237
v 5.94684410095 2.11805915833 0.861000001431
v 5.94733476639 2.1253900528 0.849999964237
v 5.94733476639 2.1253900528 0.861000001431
v 5.94684410095 2.13272094727 0.849999964237
v 5.94684410095 2.13272094727 0.861000001431
v 5.94538068771 2.13992071152 0.849999964237
v 5.94538068771 2.13992071152 0.861000001431
v 5.94297075272 2.14686155319 0.849999964237
v 5.94297075272 2.14686155319 0.861000001431
v 5.9396572113 2.15341877937 0.849999964237
v 5.9396572113 2.15341877937 0.861000001431
v 5.93549919128 2.15947628021 0.849999964237
v 5.93549919128 2.15947628021 0.861000001431
v 5.93057060242 2.16492533684 0.849999964237
v 5.93057060242 2.16492533684 0.861000001431
v 5.92496013641 2.16966891289 0.849999964237
v 5.92496013641 2.16966891289 0.861000001431
v 5.9187669754 2.17362213135 0.849999964237
v 5.9187669754 2.17362213135 0.861000001431
v 5.91210269928 2.17671489716 0.849999964237
v 5.91210269928 2.17671489716 0.861000001431
v 5.90508508682 2.17889165878 0.849999964237
v 5.90508508682 2.17889165878 0.861000001431
v 5.89784049988 2.18011403084 0.849999964237
v 5.89784049988 2.18011403084 0.861000001431
v 5.89049720764 2.18035936356 0.849999964237
v 5.89049720764 2.18035936356 0.861000001431
v 5.88318681717 2.17962384224 0.849999964237
v 5.88318681717 2.17962384224 0.861000001431
v 5.87603998184 2.17792057991 0.849999964237
v 5.87603998184 2.17792057991 0.861000001431
v 5.86918354034 2.17527985573 0.849999964237
v 5.86918354034 2.17527985573 0.861000001431
v 5.86274003983 2.17174911499 0.849999964237
v 5.86274003983 2.17174911499 0.861000001431
v 5.85682582855 2.16739106178 0.849999964237
v 5.85682582855 2.16739106178 0.861000001431
v 5.85154390335 2.16228318214 0.849999964237
v 5.85154390335 2.16228318214 0.861000001431
v 5.84699058533 2.15651726723 0.849999964237
v 5.84699058533 2.15651726723 0.861000001431
v 5.84324645996 2.1501955986 0.849999964237
v 5.84324645996 2.1501955986 0.861000001431
v 5.84037828445 2.14343142509 0.849999964237
v 5.84037828445 2.14343142509 0.861000001431
v 5.83843708038 2.13634538651 0.849999964237
v 5.83843708038 2.13634538651 0.861000001431
v 5.8374581337 2.12906360626 0.849999964237
v 5.8374581337 2.12906360626 0.861000001431
v 5.8374581337 2.12171649933 0.849999964237
v 5.8374581337 2.12171649933 0.861000001431
v 5.83843708038 2.11443471909 0.849999964237
v 5.83843708038 2.11443471909 0.861000001431
v 5.84037828445 2.1073486805 0.849999964237
v 5.84037828445 2.1073486805 0.861000001431
v 5.84324645996 2.10058450699 0.849999964237
v 5.84324645996 2.10058450699 0.861000001431
v 5.84699058533 2.09426283836 0.849999964237
v 5.84699058533 2.09426283836 0.861000001431
v 5.85154390335 2.08849692345 0.849999964237
v 5.85154390335 2.08849692345 0.861000001431
v 5.85682582855 2.08338904381 0.849999964237
v 5.85682582855 2.08338904381 0.861000001431
v 5.86274003983 2.0790309906 0.849999964237
v 5.86274003983 2.0790309906 0.861000001431
v 5.86918354034 2.07550024986 0.849999964237
v 5.86918354034 2.07550024986 0.861000001431
v 5.87603998184 2.07285952568 0.849999964237
v 5.87603998184 2.07285952568 0.861000001431
v 5.88318681717 2.07115626335 0.849999964237
v 5.88318681717 2.07115626335 0.861000001431
v 5.89049720764 2.07042074203 0.849999964237
v 5.89049720764 2.07042074203 0.861000001431
v 5.89784049988 2.07066607475 0.849999964237
v 5.89784049988 2.07066607475 0.861000001431
v 5.90508508682 2.07188844681 0.849999964237
v 5.90508508682 2.07188844681 0.861000001431
v 5.91210269928 2.07406520844 0.849999964237
v 5.91210269928 2.07406520844 0.861000001431
v 5.9187669754 2.07715797424 0.849999964237
v 5.9187669754 2.07715797424 0.861000001431
v 5.92496013641 2.0811111927 0.849999964237
v 5.92496013641 2.0811111927 0.861000001431
v 5.93057060242 2.08585476875 0.849999964237
v 5.93057060242 2.08585476875 0.861000001431
v 5.93549919128 2.09130382538 0.849999964237
v 5.93549919128 2.09130382538 0.861000001431
v 5.9396572113 2.09736132622 0.849999964237
v 5.9396572113 2.09736132622 0.861000001431
v 5.94297075272 2.1039185524 0.849999964237
v 5.94297075272 2.1039185524 0.861000001431
v 5.94538068771 2.11085939407 0.849999964237
v 5.94538068771 2.11085939407 0.861000001431
v 5.95006990433 2.02539014816 0.861000001431
v 5.34362745285 2.37500071526 0.861000001431
v 5.95006990433 2.02539014816 0.849999964237
v 5.34362745285 2.37500071526 0.849999964237
v 5.95006990433 2.72538995743 0.861000001431
v 5.95006990433 2.72538995743 0.849999964237
v 5.91942834854 2.17325377464 0.861000001431
v 5.91942834854 2.17325377464 0.723999977112
v 5.91294908524 2.17638087273 0.861000001431
v 5.91942834854 2.17325377464 0.587000012398
v 5.91294908524 2.17638087273 0.449999988079
v 5.91942834854 2.17325377464 0.449999988079
v 5.92544364929 2.16930794716 0.449999988079
v 5.92544364929 2.16930794716 0.587000012398
v 5.93089294434 2.16461086273 0.449999988079
v 5.93089294434 2.16461086273 0.587000012398
v 5.93568277359 2.15924263 0.449999988079
v 5.93568277359 2.15924263 0.587000012398
v 5.93973064423 2.15329504013 0.449999988079
v 5.93973064423 2.15329504013 0.587000012398
v 5.94296741486 2.14687013626 0.449999988079
v 5.94296741486 2.14687013626 0.587000012398
v 5.94533729553 2.14007759094 0.449999988079
v 5.94533729553 2.14007759094 0.587000012398
v 5.94680118561 2.13303375244 0.449999988079
v 5.94680118561 2.13303375244 0.587000012398
v 5.94733285904 2.12585926056 0.449999988079
v 5.94733285904 2.12585926056 0.587000012398
v 5.94692373276 2.11867666245 0.449999988079
v 5.94692373276 2.11867666245 0.587000012398
v 5.94558048248 2.11160898209 0.449999988079
v 5.94558048248 2.11160898209 0.587000012398
v 5.9433259964 2.1047770977 0.449999988079
v 5.9433259964 2.1047770977 0.587000012398
v 5.94019985199 2.0982978344 0.449999988079
v 5.94019985199 2.0982978344 0.587000012398
v 5.93625402451 2.09228205681 0.449999988079
v 5.93625402451 2.09228205681 0.587000012398
v 5.93155670166 2.08683300018 0.449999988079
v 5.93155670166 2.08683300018 0.587000012398
v 5.92618846893 2.08204340935 0.449999988079
v 5.92618846893 2.08204340935 0.587000012398
v 5.9202413559 2.07799553871 0.449999988079
v 5.9202413559 2.07799553871 0.587000012398
v 5.91381645203 2.07475852966 0.449999988079
v 5.91381645203 2.07475852966 0.587000012398
v 5.90702390671 2.07238793373 0.449999988079
v 5.90702390671 2.07238793373 0.587000012398
v 5.89998006821 2.07092404366 0.449999988079
v 5.89998006821 2.07092404366 0.587000012398
v 5.89280557632 2.07039189339 0.449999988079
v 5.89280557632 2.07039189339 0.587000012398
v 5.88562297821 2.07080125809 0.449999988079
v 5.88562297821 2.07080125809 0.587000012398
v 5.87855529785 2.07214426994 0.449999988079
v 5.87855529785 2.07214426994 0.587000012398
v 5.87172317505 2.07439827919 0.449999988079
v 5.87855529785 2.07214426994 0.723999977112
v 5.87172317505 2.07439827919 0.861000001431
v 5.87855529785 2.07214426994 0.861000001431
v 5.88562297821 2.07080125809 0.861000001431
v 5.88562297821 2.07080125809 0.723999977112
v 5.89280557632 2.07039189339 0.861000001431
v 5.89280557632 2.07039189339 0.723999977112
v 5.89998006821 2.07092404366 0.861000001431
v 5.89998006821 2.07092404366 0.723999977112
v 5.90702390671 2.07238793373 0.861000001431
v 5.90702390671 2.07238793373 0.723999977112
v 5.91381645203 2.07475852966 0.861000001431
v 5.91381645203 2.07475852966 0.723999977112
v 5.9202413559 2.07799553871 0.861000001431
v 5.9202413559 2.07799553871 0.723999977112
v 5.92618846893 2.08204340935 0.861000001431
v 5.92618846893 2.08204340935 0.723999977112
v 5.93155670166 2.08683300018 0.861000001431
v 5.93155670166 2.08683300018 0.723999977112
v 5.93625402451 2.09228205681 0.861000001431
v 5.93625402451 2.09228205681 0.723999977112
v 5.94019985199 2.0982978344 0.861000001431
v 5.94019985199 2.0982978344 0.723999977112
v 5.9433259964 2.1047770977 0.861000001431
v 5.9433259964 2.1047770977 0.723999977112
v 5.94558048248 2.11160898209 0.861000001431
v 5.94558048248 2.11160898209 0.723999977112
v 5.94692373276 2.11867666245 0.861000001431
v 5.94692373276 2.11867666245 0.723999977112
v 5.94733285904 2.12585926056 0.861000001431
v 5.94733285904 2.12585926056 0.723999977112
v 5.94680118561 2.13303375244 0.861000001431
v 5.94680118561 2.13303375244 0.723999977112
v 5.94533729553 2.14007759094 0.861000001431
v 5.94533729553 2.14007759094 0.723999977112
v 5.94296741486 2.14687013626 0.861000001431
v 5.94296741486 2.14687013626 0.723999977112
v 5.93973064423 2.15329504013 0.861000001431
v 5.93973064423 2.15329504013 0.723999977112
v 5.93568277359 2.15924263 0.861000001431
v 5.93568277359 2.15924263 0.723999977112
v 5.93089294434 2.16461086273 0.861000001431
v 5.93089294434 2.16461086273 0.723999977112
v 5.92544364929 2.16930794716 0.861000001431
v 5.92544364929 2.16930794716 0.723999977112
v 5.86524343491 2.07752513885 0.861000001431
v 5.86524343491 2.07752513885 0.723999977112
v 5.86524343491 2.07752513885 0.587000012398
v 5.86524343491 2.07752513885 0.449999988079
v 5.85922813416 2.08147072792 0.449999988079
v 5.85922813416 2.08147072792 0.587000012398
v 5.85377836227 2.08616781235 0.449999988079
v 5.85377836227 2.08616781235 0.587000012398
v 5.84898853302 2.09153604507 0.449999988079
v 5.84898853302 2.09153604507 0.587000012398
v 5.84494066238 2.09748363495 0.449999988079
v 5.84494066238 2.09748363495 0.587000012398
v 5.84170341492 2.10390877724 0.449999988079
v 5.84170341492 2.10390877724 0.587000012398
v 5.8393330574 2.11070132256 0.449999988079
v 5.8393330574 2.11070132256 0.587000012398
v 5.83786916733 2.11774516106 0.449999988079
v 5.83786916733 2.11774516106 0.587000012398
v 5.83733701706 2.12492012978 0.449999988079
v 5.83733701706 2.12492012978 0.587000012398
v 5.83774614334 2.13210296631 0.449999988079
v 5.83774614334 2.13210296631 0.587000012398
v 5.83908939362 2.13917088509 0.449999988079
v 5.83908939362 2.13917088509 0.587000012398
v 5.8413438797 2.14600300789 0.449999988079
v 5.8413438797 2.14600300789 0.587000012398
v 5.84447050095 2.15248227119 0.449999988079
v 5.84447050095 2.15248227119 0.587000012398
v 5.84841632843 2.1584982872 0.449999988079
v 5.84841632843 2.1584982872 0.587000012398
v 5.85311365128 2.16394758224 0.449999988079
v 5.85311365128 2.16394758224 0.587000012398
v 5.85848236084 2.16873717308 0.449999988079
v 5.85848236084 2.16873717308 0.587000012398
v 5.86442947388 2.17278504372 0.449999988079
v 5.86442947388 2.17278504372 0.587000012398
v 5.87085485458 2.17602205276 0.449999988079
v 5.87085485458 2.17602205276 0.587000012398
v 5.8776473999 2.1783926487 0.449999988079
v 5.8776473999 2.1783926487 0.587000012398
v 5.88469171524 2.17985630035 0.449999988079
v 5.88469171524 2.17985630035 0.587000012398
v 5.89186620712 2.1803882122 0.449999988079
v 5.89186620712 2.1803882122 0.587000012398
v 5.89904928207 2.17997860909 0.449999988079
v 5.89904928207 2.17997860909 0.587000012398
v 5.90611696243 2.17863512039 0.449999988079
v 5.90611696243 2.17863512039 0.587000012398
v 5.90611696243 2.17863512039 0.723999977112
v 5.89904928207 2.17997860909 0.861000001431
v 5.89904928207 2.17997860909 0.723999977112
v 5.89186620712 2.1803882122 0.861000001431
v 5.89186620712 2.1803882122 0.723999977112
v 5.88469171524 2.17985630035 0.861000001431
v 5.88469171524 2.17985630035 0.723999977112
v 5.8776473999 2.1783926487 0.861000001431
v 5.8776473999 2.1783926487 0.723999977112
v 5.87085485458 2.17602205276 0.861000001431
v 5.87085485458 2.17602205276 0.723999977112
v 5.86442947388 2.17278504372 0.861000001431
v 5.86442947388 2.17278504372 0.723999977112
v 5.85848236084 2.16873717308 0.861000001431
v 5.85848236084 2.16873717308 0.723999977112
v 5.85311365128 2.16394758224 0.861000001431
v 5.85311365128 2.16394758224 0.723999977112
v 5.84841632843 2.1584982872 0.861000001431
v 5.84841632843 2.1584982872 0.723999977112
v 5.84447050095 2.15248227119 0.861000001431
v 5.84447050095 2.15248227119 0.723999977112
v 5.8413438797 2.14600300789 0.861000001431
v 5.8413438797 2.14600300789 0.723999977112
v 5.83908939362 2.13917088509 0.861000001431
v 5.83908939362 2.13917088509 0.723999977112
v 5.83774614334 2.13210296631 0.861000001431
v 5.83774614334 2.13210296631 0.723999977112
v 5.83733701706 2.12492012978 0.861000001431
v 5.83733701706 2.12492012978 0.723999977112
v 5.83786916733 2.11774516106 0.861000001431
v 5.83786916733 2.11774516106 0.723999977112
v 5.8393330574 2.11070132256 0.861000001431
v 5.8393330574 2.11070132256 0.723999977112
v 5.84170341492 2.10390877724 0.861000001431
v 5.84170341492 2.10390877724 0.723999977112
v 5.84494066238 2.09748363495 0.861000001431
v 5.84494066238 2.09748363495 0.723999977112
v 5.84898853302 2.09153604507 0.861000001431
v 5.84898853302 2.09153604507 0.723999977112
v 5.85377836227 2.08616781235 0.861000001431
v 5.85377836227 2.08616781235 0.723999977112
v 5.85922813416 2.08147072792 0.861000001431
v 5.85922813416 2.08147072792 0.723999977112
v 5.40481281281 2.36805868149 0.449999988079
v 5.40481281281 2.36805868149 0.587000012398
v 5.40432214737 2.37538957596 0.449999988079
v 5.40432214737 2.37538957596 0.587000012398
v 5.40481281281 2.38272047043 0.449999988079
v 5.40481281281 2.38272047043 0.587000012398
v 5.40627622604 2.38992023468 0.449999988079
v 5.40627622604 2.38992023468 0.587000012398
v 5.40868663788 2.39686107635 0.449999988079
v 5.40868663788 2.39686107635 0.587000012398
v 5.41200017929 2.40341830254 0.449999988079
v 5.41200017929 2.40341830254 0.587000012398
v 5.41615819931 2.40947580338 0.449999988079
v 5.41615819931 2.40947580338 0.587000012398
v 5.42108631134 2.41492486 0.449999988079
v 5.42108631134 2.41492486 0.587000012398
v 5.42669725418 2.41966843605 0.449999988079
v 5.42669725418 2.41966843605 0.587000012398
v 5.43288993835 2.42362165451 0.449999988079
v 5.43288993835 2.42362165451 0.587000012398
v 5.43955469131 2.42671442032 0.449999988079
v 5.43955469131 2.42671442032 0.587000012398
v 5.44657230377 2.42889118195 0.449999988079
v 5.44657230377 2.42889118195 0.587000012398
v 5.45381689072 2.430113554 0.449999988079
v 5.45381689072 2.430113554 0.587000012398
v 5.46116018295 2.43035888672 0.449999988079
v 5.46116018295 2.43035888672 0.587000012398
v 5.46847009659 2.4296233654 0.449999988079
v 5.46847009659 2.4296233654 0.587000012398
v 5.47561740875 2.42792010307 0.449999988079
v 5.47561740875 2.42792010307 0.587000012398
v 5.48247385025 2.42527937889 0.449999988079
v 5.48247385025 2.42527937889 0.587000012398
v 5.48891639709 2.42174863815 0.449999988079
v 5.48891639709 2.42174863815 0.587000012398
v 5.49483156204 2.41739058495 0.449999988079
v 5.49483156204 2.41739058495 0.587000012398
v 5.50011348724 2.41228270531 0.449999988079
v 5.50011348724 2.41228270531 0.587000012398
v 5.50466632843 2.40651679039 0.449999988079
v 5.50466632843 2.40651679039 0.587000012398
v 5.5084104538 2.40019512177 0.449999988079
v 5.5084104538 2.40019512177 0.587000012398
v 5.5112786293 2.39343070984 0.449999988079
v 5.5112786293 2.39343070984 0.587000012398
v 5.51322031021 2.38634490967 0.449999988079
v 5.51322031021 2.38634490967 0.587000012398
v 5.5141992569 2.37906312943 0.449999988079
v 5.5141992569 2.37906312943 0.587000012398
v 5.5141992569 2.37171602249 0.449999988079
v 5.5141992569 2.37171602249 0.587000012398
v 5.51322031021 2.36443424225 0.449999988079
v 5.51322031021 2.36443424225 0.587000012398
v 5.5112786293 2.35734820366 0.449999988079
v 5.5112786293 2.35734820366 0.587000012398
v 5.5084104538 2.35058379173 0.449999988079
v 5.5084104538 2.35058379173 0.587000012398
v 5.50466632843 2.34426236153 0.449999988079
v 5.50466632843 2.34426236153 0.587000012398
v 5.50011348724 2.33849644661 0.449999988079
v 5.50011348724 2.33849644661 0.587000012398
v 5.49483156204 2.33338856697 0.449999988079
v 5.49483156204 2.33338856697 0.587000012398
v 5.48891639709 2.32903051376 0.449999988079
v 5.48891639709 2.32903051376 0.587000012398
v 5.48247385025 2.32549977303 0.449999988079
v 5.48247385025 2.32549977303 0.587000012398
v 5.47561740875 2.32285881042 0.449999988079
v 5.47561740875 2.32285881042 0.587000012398
v 5.46847009659 2.32115578651 0.449999988079
v 5.46847009659 2.32115578651 0.587000012398
v 5.46116018295 2.3204202652 0.449999988079
v 5.46116018295 2.3204202652 0.587000012398
v 5.45381689072 2.32066559792 0.449999988079
v 5.45381689072 2.32066559792 0.587000012398
v 5.44657230377 2.32188796997 0.449999988079
v 5.44657230377 2.32188796997 0.587000012398
v 5.43955469131 2.3240647316 0.449999988079
v 5.43955469131 2.3240647316 0.587000012398
v 5.43288993835 2.32715749741 0.449999988079
v 5.43288993835 2.32715749741 0.587000012398
v 5.42669725418 2.33111071587 0.449999988079
v 5.42669725418 2.33111071587 0.587000012398
v 5.42108631134 2.3358540535 0.449999988079
v 5.42108631134 2.3358540535 0.587000012398
v 5.41615819931 2.34130334854 0.449999988079
v 5.41615819931 2.34130334854 0.587000012398
v 5.41200017929 2.34736084938 0.449999988079
v 5.41200017929 2.34736084938 0.587000012398
v 5.40868663788 2.35391807556 0.449999988079
v 5.40868663788 2.35391807556 0.587000012398
v 5.40627622604 2.36085891724 0.449999988079
v 5.40627622604 2.36085891724 0.587000012398
v 5.40481281281 2.38272047043 0.861000001431
v 5.40481281281 2.38272047043 0.723999977112
v 5.40432214737 2.37538957596 0.861000001431
v 5.40432214737 2.37538957596 0.723999977112
v 5.40481281281 2.36805868149 0.861000001431
v 5.40481281281 2.36805868149 0.723999977112
v 5.40627622604 2.36085891724 0.861000001431
v 5.40627622604 2.36085891724 0.723999977112
v 5.40868663788 2.35391807556 0.861000001431
v 5.40868663788 2.35391807556 0.723999977112
v 5.41200017929 2.34736084938 0.861000001431
v 5.41200017929 2.34736084938 0.723999977112
v 5.41615819931 2.34130334854 0.861000001431
v 5.41615819931 2.34130334854 0.723999977112
v 5.42108631134 2.3358540535 0.861000001431
v 5.42108631134 2.3358540535 0.723999977112
v 5.42669725418 2.33111071587 0.861000001431
v 5.42669725418 2.33111071587 0.723999977112
v 5.43288993835 2.32715749741 0.861000001431
v 5.43288993835 2.32715749741 0.723999977112
v 5.43955469131 2.3240647316 0.861000001431
v 5.43955469131 2.3240647316 0.723999977112
v 5.44657230377 2.32188796997 0.861000001431
v 5.44657230377 2.32188796997 0.723999977112
v 5.45381689072 2.32066559792 0.861000001431
v 5.45381689072 2.32066559792 0.723999977112
v 5.46116018295 2.3204202652 0.861000001431
v 5.46116018295 2.3204202652 0.723999977112
v 5.46847009659 2.32115578651 0.861000001431
v 5.46847009659 2.32115578651 0.723999977112
v 5.47561740875 2.32285881042 0.861000001431
v 5.47561740875 2.32285881042 0.723999977112
v 5.48247385025 2.32549977303 0.861000001431
v 5.48247385025 2.32549977303 0.723999977112
v 5.48891639709 2.32903051376 0.861000001431
v 5.48891639709 2.32903051376 0.723999977112
v 5.49483156204 2.33338856697 0.861000001431
v 5.49483156204 2.33338856697 0.723999977112
v 5.50011348724 2.33849644661 0.861000001431
v 5.50011348724 2.33849644661 0.723999977112
v 5.50466632843 2.34426236153 0.861000001431
v 5.50466632843 2.34426236153 0.723999977112
v 5.5084104538 2.35058379173 0.861000001431
v 5.5084104538 2.35058379173 0.723999977112
v 5.5112786293 2.35734820366 0.861000001431
v 5.5112786293 2.35734820366 0.723999977112
v 5.51322031021 2.36443424225 0.861000001431
v 5.51322031021 2.36443424225 0.723999977112
v 5.5141992569 2.37171602249 0.861000001431
v 5.5141992569 2.37171602249 0.723999977112
v 5.5141992569 2.37906312943 0.861000001431
v 5.5141992569 2.37906312943 0.723999977112
v 5.51322031021 2.38634490967 0.861000001431
v 5.51322031021 2.38634490967 0.723999977112
v 5.5112786293 2.39343070984 0.861000001431
v 5.5112786293 2.39343070984 0.723999977112
v 5.5084104538 2.40019512177 0.861000001431
v 5.5084104538 2.40019512177 0.723999977112
v 5.50466632843 2.40651679039 0.861000001431
v 5.50466632843 2.40651679039 0.723999977112
v 5.50011348724 2.41228270531 0.861000001431
v 5.50011348724 2.41228270531 0.723999977112
v 5.49483156204 2.41739058495 0.861000001431
v 5.49483156204 2.41739058495 0.723999977112
v 5.48891639709 2.42174863815 0.861000001431
v 5.48891639709 2.42174863815 0.723999977112
v 5.48247385025 2.42527937889 0.861000001431
v 5.48247385025 2.42527937889 0.723999977112
v 5.47561740875 2.42792010307 0.861000001431
v 5.47561740875 2.42792010307 0.723999977112
v 5.46847009659 2.4296233654 0.861000001431
v 5.46847009659 2.4296233654 0.723999977112
v 5.46116018295 2.43035888672 0.861000001431
v 5.46116018295 2.43035888672 0.723999977112
v 5.45381689072 2.430113554 0.861000001431
v 5.45381689072 2.430113554 0.723999977112
v 5.44657230377 2.42889118195 0.861000001431
v 5.44657230377 2.42889118195 0.723999977112
v 5.43955469131 2.42671442032 0.861000001431
v 5.43955469131 2.42671442032 0.723999977112
v 5.43288993835 2.42362165451 0.861000001431
v 5.43288993835 2.42362165451 0.723999977112
v 5.42669725418 2.41966843605 0.861000001431
v 5.42669725418 2.41966843605 0.723999977112
v 5.42108631134 2.41492486 0.861000001431
v 5.42108631134 2.41492486 0.723999977112
v 5.41615819931 2.40947580338 0.861000001431
v 5.41615819931 2.40947580338 0.723999977112
v 5.41200017929 2.40341830254 0.861000001431
v 5.41200017929 2.40341830254 0.723999977112
v 5.40868663788 2.39686107635 0.861000001431
v 5.40868663788 2.39686107635 0.723999977112
v 5.40627622604 2.38992023468 0.861000001431
v 5.40627622604 2.38992023468 0.723999977112
# </points>

# <edges count="2268">
l 2 3
l 4 2
l 5 4
l 6 4
l 7 6
l 8 6
l 9 8
l 10 8
l 11 10
l 12 10
l 13 12
l 14 12
l 15 14
l 16 14
l 17 16
l 18 16
l 19 18
l 20 18
l 21 20
l 22 20
l 23 22
l 24 22
l 25 24
l 26 24
l 27 26
l 28 26
l 29 28
l 30 28
l 31 30
l 32 30
l 33 32
l 34 32
l 35 34
l 36 34
l 37 36
l 38 36
l 39 38
l 40 38
l 41 40
l 42 40
l 43 42
l 44 42
l 45 44
l 46 44
l 47 46
l 48 46
l 49 48
l 50 48
l 51 50
l 52 50
l 53 52
l 54 52
l 55 54
l 56 54
l 57 56
l 58 56
l 59 58
l 60 58
l 61 60
l 62 60
l 63 62
l 64 62
l 65 64
l 66 64
l 67 66
l 68 66
l 69 68
l 70 68
l 71 70
l 72 70
l 73 72
l 74 72
l 75 74
l 76 74
l 77 76
l 78 76
l 79 78
l 80 78
l 81 80
l 82 80
l 83 82
l 84 82
l 85 84
l 86 84
l 87 86
l 88 86
l 89 88
l 90 88
l 91 90
l 92 90
l 93 92
l 94 92
l 95 94
l 2 94
l 97 98
l 96 97
l 99 98
l 99 100
l 101 100
l 101 102
l 103 102
l 103 104
l 105 104
l 105 106
l 107 106
l 107 108
l 109 108
l 109 110
l 111 110
l 111 112
l 113 112
l 113 114
l 115 114
l 115 116
l 117 116
l 117 118
l 119 118
l 119 120
l 121 120
l 121 122
l 123 122
l 123 124
l 125 124
l 125 126
l 127 126
l 127 128
l 129 128
l 129 130
l 131 130
l 131 132
l 133 132
l 133 134
l 135 134
l 135 136
l 137 136
l 137 138
l 139 138
l 139 140
l 141 140
l 141 142
l 143 142
l 143 144
l 145 144
l 145 146
l 147 146
l 147 148
l 149 148
l 149 150
l 151 150
l 151 152
l 153 152
l 153 154
l 155 154
l 155 156
l 157 156
l 157 158
l 159 158
l 159 160
l 161 160
l 161 162
l 163 162
l 163 164
l 165 164
l 165 166
l 167 166
l 167 168
l 169 168
l 169 170
l 171 170
l 171 172
l 173 172
l 173 174
l 175 174
l 175 176
l 177 176
l 177 178
l 179 178
l 179 180
l 181 180
l 181 182
l 183 182
l 183 184
l 185 184
l 185 186
l 187 186
l 187 188
l 189 188
l 189 96
l 5 145
l 143 7
l 141 9
l 139 11
l 137 13
l 135 15
l 133 17
l 131 19
l 129 21
l 127 23
l 125 25
l 123 27
l 121 29
l 119 31
l 117 33
l 115 35
l 113 37
l 111 39
l 109 41
l 107 43
l 105 45
l 103 47
l 101 49
l 99 51
l 97 53
l 189 55
l 187 57
l 185 59
l 183 61
l 181 63
l 179 65
l 177 67
l 175 69
l 173 71
l 171 73
l 169 75
l 167 77
l 165 79
l 163 81
l 161 83
l 159 85
l 157 87
l 155 89
l 153 91
l 151 93
l 149 95
l 147 3
l 192 190
l 191 193
l 194 192
l 193 195
l 196 194
l 195 197
l 198 196
l 197 199
l 200 198
l 199 201
l 202 200
l 201 203
l 204 202
l 203 205
l 206 204
l 205 207
l 208 206
l 207 209
l 210 208
l 209 211
l 212 210
l 211 213
l 214 212
l 213 215
l 216 214
l 215 217
l 218 216
l 217 219
l 220 218
l 219 221
l 222 220
l 221 223
l 224 222
l 223 225
l 226 224
l 225 227
l 228 226
l 227 229
l 230 228
l 229 231
l 232 230
l 231 233
l 234 232
l 233 235
l 236 234
l 235 237
l 238 236
l 237 239
l 240 238
l 239 241
l 242 240
l 241 243
l 244 242
l 243 245
l 246 244
l 245 247
l 248 246
l 247 249
l 250 248
l 249 251
l 252 250
l 251 253
l 254 252
l 253 255
l 256 254
l 255 257
l 258 256
l 257 259
l 260 258
l 259 261
l 262 260
l 261 263
l 264 262
l 263 265
l 266 264
l 265 267
l 268 266
l 267 269
l 270 268
l 269 271
l 272 270
l 271 273
l 274 272
l 273 275
l 276 274
l 275 277
l 278 276
l 277 279
l 280 278
l 279 281
l 282 280
l 281 283
l 190 282
l 283 191
l 286 284
l 285 287
l 288 286
l 287 289
l 290 288
l 289 291
l 292 290
l 291 293
l 294 292
l 293 295
l 296 294
l 295 297
l 298 296
l 297 299
l 300 298
l 299 301
l 302 300
l 301 303
l 304 302
l 303 305
l 306 304
l 305 307
l 308 306
l 307 309
l 310 308
l 309 311
l 312 310
l 311 313
l 314 312
l 313 315
l 316 314
l 315 317
l 318 316
l 317 319
l 320 318
l 319 321
l 322 320
l 321 323
l 324 322
l 323 325
l 326 324
l 325 327
l 328 326
l 327 329
l 330 328
l 329 331
l 332 330
l 331 333
l 334 332
l 333 335
l 336 334
l 335 337
l 338 336
l 337 339
l 340 338
l 339 341
l 342 340
l 341 343
l 344 342
l 343 345
l 346 344
l 345 347
l 348 346
l 347 349
l 350 348
l 349 351
l 352 350
l 351 353
l 354 352
l 353 355
l 356 354
l 355 357
l 358 356
l 357 359
l 360 358
l 359 361
l 362 360
l 361 363
l 364 362
l 363 365
l 366 364
l 365 367
l 368 366
l 367 369
l 370 368
l 369 371
l 372 370
l 371 373
l 374 372
l 373 375
l 376 374
l 375 377
l 284 376
l 377 285
l 380 378
l 378 379
l 379 381
l 381 380
l 383 382
l 382 378
l 380 383
l 379 382
l 383 381
l 384 385
l 386 384
l 385 387
l 388 386
l 387 389
l 389 388
l 390 389
l 391 390
l 392 390
l 393 392
l 394 392
l 395 394
l 396 394
l 397 396
l 398 396
l 399 398
l 400 398
l 401 400
l 402 400
l 403 402
l 404 402
l 405 404
l 406 404
l 407 406
l 408 406
l 409 408
l 410 408
l 411 410
l 412 410
l 413 412
l 414 412
l 415 414
l 416 414
l 417 416
l 418 416
l 419 418
l 420 418
l 421 420
l 422 420
l 423 422
l 424 422
l 425 424
l 426 424
l 427 426
l 428 426
l 429 428
l 430 428
l 431 430
l 432 430
l 433 432
l 434 432
l 433 435
l 436 434
l 435 437
l 437 436
l 438 437
l 439 438
l 440 438
l 441 440
l 442 440
l 443 442
l 444 442
l 445 444
l 446 444
l 447 446
l 448 446
l 449 448
l 450 448
l 451 450
l 452 450
l 453 452
l 454 452
l 455 454
l 456 454
l 457 456
l 458 456
l 459 458
l 460 458
l 461 460
l 462 460
l 463 462
l 464 462
l 465 464
l 466 464
l 467 466
l 468 466
l 469 468
l 470 468
l 471 470
l 472 470
l 473 472
l 474 472
l 475 474
l 476 474
l 477 476
l 478 476
l 479 478
l 384 478
l 479 391
l 477 393
l 475 395
l 473 397
l 471 399
l 469 401
l 467 403
l 465 405
l 463 407
l 461 409
l 459 411
l 457 413
l 455 415
l 453 417
l 451 419
l 449 421
l 447 423
l 445 425
l 443 427
l 441 429
l 439 431
l 480 481
l 436 480
l 481 482
l 482 483
l 483 434
l 484 483
l 485 484
l 486 484
l 487 486
l 488 486
l 489 488
l 490 488
l 491 490
l 492 490
l 493 492
l 494 492
l 495 494
l 496 494
l 497 496
l 498 496
l 499 498
l 500 498
l 501 500
l 502 500
l 503 502
l 504 502
l 505 504
l 506 504
l 507 506
l 508 506
l 509 508
l 510 508
l 511 510
l 512 510
l 513 512
l 514 512
l 515 514
l 516 514
l 517 516
l 518 516
l 519 518
l 520 518
l 521 520
l 522 520
l 523 522
l 524 522
l 525 524
l 526 524
l 527 526
l 388 526
l 527 528
l 528 1
l 1 386
l 529 1
l 530 529
l 531 529
l 532 531
l 533 531
l 534 533
l 535 533
l 536 535
l 537 535
l 538 537
l 539 537
l 540 539
l 541 539
l 542 541
l 543 541
l 544 543
l 545 543
l 546 545
l 547 545
l 548 547
l 549 547
l 550 549
l 551 549
l 552 551
l 553 551
l 554 553
l 555 553
l 556 555
l 557 555
l 558 557
l 559 557
l 560 559
l 561 559
l 562 561
l 563 561
l 564 563
l 565 563
l 566 565
l 567 565
l 568 567
l 569 567
l 570 569
l 480 569
l 570 485
l 568 487
l 566 489
l 564 491
l 562 493
l 560 495
l 558 497
l 556 499
l 554 501
l 552 503
l 550 505
l 548 507
l 546 509
l 544 511
l 542 513
l 540 515
l 538 517
l 536 519
l 534 521
l 532 523
l 530 525
l 571 572
l 573 571
l 574 573
l 575 573
l 576 575
l 577 575
l 578 577
l 579 577
l 580 579
l 581 579
l 582 581
l 583 581
l 584 583
l 585 583
l 586 585
l 587 585
l 588 587
l 589 587
l 590 589
l 591 589
l 592 591
l 593 591
l 594 593
l 595 593
l 596 595
l 597 595
l 598 597
l 599 597
l 600 599
l 601 599
l 602 601
l 603 601
l 604 603
l 605 603
l 606 605
l 607 605
l 608 607
l 609 607
l 610 609
l 611 609
l 612 611
l 613 611
l 614 613
l 615 613
l 616 615
l 617 615
l 618 617
l 619 617
l 620 619
l 621 619
l 622 621
l 623 621
l 624 623
l 625 623
l 626 625
l 627 625
l 628 627
l 629 627
l 630 629
l 631 629
l 632 631
l 633 631
l 634 633
l 635 633
l 636 635
l 637 635
l 638 637
l 639 637
l 640 639
l 641 639
l 642 641
l 643 641
l 644 643
l 645 643
l 646 645
l 647 645
l 648 647
l 649 647
l 650 649
l 651 649
l 652 651
l 653 651
l 654 653
l 655 653
l 656 655
l 657 655
l 658 657
l 659 657
l 660 659
l 661 659
l 662 661
l 663 661
l 664 663
l 571 663
l 665 666
l 667 665
l 668 667
l 669 667
l 670 669
l 671 669
l 672 671
l 673 671
l 674 673
l 675 673
l 676 675
l 677 675
l 678 677
l 679 677
l 680 679
l 681 679
l 682 681
l 683 681
l 684 683
l 685 683
l 686 685
l 687 685
l 688 687
l 689 687
l 690 689
l 691 689
l 692 691
l 693 691
l 694 693
l 695 693
l 696 695
l 697 695
l 698 697
l 699 697
l 700 699
l 701 699
l 702 701
l 703 701
l 704 703
l 705 703
l 706 705
l 707 705
l 708 707
l 709 707
l 710 709
l 711 709
l 712 711
l 713 711
l 714 713
l 715 713
l 716 715
l 717 715
l 718 717
l 719 717
l 720 719
l 721 719
l 722 721
l 723 721
l 724 723
l 725 723
l 726 725
l 727 725
l 728 727
l 729 727
l 730 729
l 731 729
l 732 731
l 733 731
l 734 733
l 735 733
l 736 735
l 737 735
l 738 737
l 739 737
l 740 739
l 741 739
l 742 741
l 743 741
l 744 743
l 745 743
l 746 745
l 747 745
l 748 747
l 749 747
l 750 749
l 751 749
l 752 751
l 753 751
l 754 753
l 755 753
l 756 755
l 757 755
l 758 757
l 665 757
l 574 668
l 666 576
l 758 578
l 756 580
l 754 582
l 752 584
l 750 586
l 748 588
l 746 590
l 744 592
l 742 594
l 740 596
l 738 598
l 736 600
l 734 602
l 732 604
l 730 606
l 728 608
l 726 610
l 724 612
l 722 614
l 720 616
l 718 618
l 716 620
l 714 622
l 712 624
l 710 626
l 708 628
l 706 630
l 704 632
l 702 634
l 700 636
l 698 638
l 696 640
l 694 642
l 692 644
l 690 646
l 688 648
l 686 650
l 684 652
l 682 654
l 680 656
l 678 658
l 676 660
l 674 662
l 672 664
l 670 572
l 98 96
l 100 98
l 102 100
l 104 102
l 106 104
l 108 106
l 110 108
l 112 110
l 114 112
l 116 114
l 118 116
l 120 118
l 122 120
l 124 122
l 126 124
l 128 126
l 130 128
l 132 130
l 134 132
l 136 134
l 138 136
l 140 138
l 142 140
l 144 142
l 146 144
l 148 146
l 150 148
l 152 150
l 154 152
l 156 154
l 158 156
l 160 158
l 162 160
l 164 162
l 166 164
l 168 166
l 170 168
l 172 170
l 174 172
l 176 174
l 178 176
l 180 178
l 182 180
l 184 182
l 186 184
l 188 186
l 96 188
l 190 191
l 193 192
l 195 194
l 197 196
l 199 198
l 201 200
l 203 202
l 205 204
l 207 206
l 209 208
l 211 210
l 213 212
l 215 214
l 217 216
l 219 218
l 221 220
l 223 222
l 225 224
l 227 226
l 229 228
l 231 230
l 233 232
l 235 234
l 237 236
l 239 238
l 241 240
l 243 242
l 245 244
l 247 246
l 249 248
l 251 250
l 253 252
l 255 254
l 257 256
l 259 258
l 261 260
l 263 262
l 265 264
l 267 266
l 269 268
l 271 270
l 273 272
l 275 274
l 277 276
l 279 278
l 281 280
l 283 282
l 284 285
l 287 286
l 289 288
l 291 290
l 293 292
l 295 294
l 297 296
l 299 298
l 301 300
l 303 302
l 305 304
l 307 306
l 309 308
l 311 310
l 313 312
l 315 314
l 317 316
l 319 318
l 321 320
l 323 322
l 325 324
l 327 326
l 329 328
l 331 330
l 333 332
l 335 334
l 337 336
l 339 338
l 341 340
l 343 342
l 345 344
l 347 346
l 349 348
l 351 350
l 353 352
l 355 354
l 357 356
l 359 358
l 361 360
l 363 362
l 365 364
l 367 366
l 369 368
l 371 370
l 373 372
l 375 374
l 377 376
l 3 4
l 3 5
l 5 6
l 5 7
l 7 8
l 7 9
l 11 12
l 15 17
l 23 25
l 29 30
l 29 31
l 31 32
l 31 33
l 35 36
l 35 37
l 37 38
l 43 44
l 43 45
l 45 47
l 47 48
l 49 50
l 53 55
l 55 56
l 55 57
l 57 58
l 57 59
l 59 60
l 65 66
l 65 67
l 69 70
l 69 71
l 75 76
l 75 77
l 77 78
l 77 79
l 79 80
l 81 82
l 81 83
l 83 85
l 85 86
l 87 88
l 89 90
l 91 93
l 93 94
l 95 2
l 95 3
l 145 7
l 143 9
l 139 13
l 121 31
l 119 33
l 115 37
l 113 39
l 107 45
l 103 49
l 101 51
l 189 57
l 187 59
l 185 61
l 179 67
l 175 71
l 169 77
l 167 79
l 165 81
l 163 83
l 159 87
l 157 89
l 155 91
l 151 95
l 149 3
l 147 5
l 6 2
l 6 94
l 8 94
l 8 92
l 8 90
l 8 88
l 8 86
l 8 84
l 8 82
l 8 80
l 8 78
l 8 76
l 8 74
l 8 72
l 10 72
l 10 70
l 10 68
l 10 66
l 10 64
l 10 62
l 10 60
l 10 58
l 10 56
l 10 54
l 10 52
l 10 50
l 10 48
l 10 46
l 10 44
l 12 44
l 12 42
l 14 42
l 14 40
l 16 40
l 16 38
l 18 38
l 18 36
l 20 36
l 20 34
l 22 34
l 22 32
l 24 32
l 24 30
l 26 30
l 191 192
l 193 194
l 195 196
l 197 198
l 199 200
l 201 202
l 203 204
l 207 208
l 209 210
l 213 214
l 215 216
l 221 222
l 229 230
l 231 232
l 241 242
l 247 248
l 249 250
l 251 252
l 255 256
l 259 260
l 261 262
l 267 268
l 269 270
l 271 272
l 275 276
l 277 278
l 279 280
l 281 282
l 283 190
l 285 286
l 287 288
l 289 290
l 291 292
l 295 296
l 299 300
l 303 304
l 307 308
l 309 310
l 319 320
l 321 322
l 325 326
l 331 332
l 341 342
l 345 346
l 349 350
l 353 354
l 355 356
l 367 368
l 369 370
l 373 374
l 377 284
l 379 380
l 382 381
l 98 286
l 288 98
l 383 286
l 98 383
l 380 286
l 288 96
l 290 96
l 290 188
l 292 188
l 292 186
l 294 186
l 294 184
l 296 184
l 296 182
l 298 182
l 298 180
l 300 180
l 300 178
l 302 178
l 302 176
l 304 176
l 304 174
l 306 174
l 306 172
l 308 172
l 308 170
l 310 170
l 310 168
l 312 168
l 312 166
l 314 166
l 314 164
l 316 164
l 316 162
l 318 162
l 318 160
l 320 160
l 320 158
l 192 158
l 320 192
l 194 158
l 320 190
l 322 190
l 322 282
l 324 282
l 326 282
l 326 280
l 328 280
l 328 278
l 330 278
l 330 276
l 330 274
l 332 274
l 332 272
l 334 272
l 334 270
l 336 270
l 336 268
l 338 268
l 338 266
l 340 266
l 340 264
l 342 264
l 342 262
l 342 260
l 344 260
l 344 258
l 346 258
l 346 256
l 348 256
l 348 381
l 381 256
l 348 380
l 350 380
l 352 380
l 354 380
l 356 380
l 358 380
l 360 380
l 362 380
l 364 380
l 366 380
l 368 380
l 370 380
l 372 380
l 374 380
l 376 380
l 284 380
l 100 383
l 102 383
l 104 383
l 106 383
l 108 383
l 110 383
l 112 383
l 114 383
l 116 383
l 118 383
l 120 383
l 122 383
l 124 383
l 126 383
l 128 383
l 130 383
l 222 383
l 130 222
l 224 383
l 132 222
l 132 220
l 134 220
l 134 218
l 136 218
l 136 216
l 136 214
l 138 214
l 138 212
l 140 212
l 140 210
l 142 210
l 142 208
l 144 208
l 144 206
l 146 206
l 146 204
l 148 204
l 148 202
l 148 200
l 150 200
l 150 198
l 152 198
l 152 196
l 154 196
l 156 196
l 156 194
l 224 381
l 226 381
l 228 381
l 230 381
l 232 381
l 234 381
l 236 381
l 238 381
l 240 381
l 242 381
l 244 381
l 246 381
l 248 381
l 250 381
l 252 381
l 254 381
l 387 386
l 391 393
l 393 394
l 393 395
l 395 396
l 397 398
l 397 399
l 399 400
l 399 401
l 401 403
l 403 404
l 411 412
l 413 414
l 415 417
l 417 419
l 421 422
l 427 428
l 427 429
l 435 434
l 441 442
l 441 443
l 447 449
l 451 452
l 453 454
l 455 457
l 457 459
l 465 467
l 467 468
l 469 470
l 469 471
l 471 472
l 471 473
l 473 475
l 475 476
l 475 477
l 477 478
l 477 395
l 475 397
l 473 399
l 471 401
l 467 405
l 459 413
l 457 415
l 449 423
l 443 429
l 482 484
l 482 485
l 485 486
l 489 490
l 491 492
l 491 493
l 493 494
l 493 495
l 495 497
l 497 498
l 497 499
l 499 500
l 499 501
l 501 502
l 501 503
l 503 504
l 503 505
l 505 507
l 509 511
l 511 512
l 511 513
l 513 514
l 515 516
l 515 517
l 517 518
l 517 519
l 519 520
l 519 521
l 521 522
l 521 523
l 523 524
l 523 525
l 525 526
l 525 527
l 527 388
l 528 386
l 528 529
l 528 530
l 530 531
l 530 532
l 532 533
l 532 534
l 534 535
l 534 536
l 536 537
l 536 538
l 538 539
l 538 540
l 540 542
l 542 543
l 542 544
l 544 545
l 548 549
l 550 551
l 550 552
l 552 553
l 552 554
l 554 555
l 554 556
l 556 557
l 556 558
l 558 559
l 560 561
l 560 562
l 562 563
l 562 564
l 564 566
l 568 570
l 570 480
l 570 481
l 481 485
l 570 487
l 566 491
l 564 493
l 562 495
l 558 499
l 556 501
l 554 503
l 552 505
l 544 513
l 542 515
l 540 517
l 538 519
l 536 521
l 534 523
l 532 525
l 530 527
l 434 498
l 498 432
l 483 498
l 484 498
l 484 496
l 486 496
l 486 494
l 486 492
l 486 490
l 388 498
l 500 388
l 389 498
l 390 498
l 502 388
l 504 388
l 506 388
l 508 388
l 510 388
l 512 388
l 514 388
l 516 388
l 518 388
l 520 388
l 522 388
l 524 388
l 392 498
l 394 498
l 396 498
l 398 498
l 400 498
l 402 498
l 404 498
l 406 498
l 408 498
l 410 498
l 412 498
l 414 498
l 416 498
l 418 498
l 420 498
l 422 498
l 424 498
l 426 498
l 428 498
l 430 498
l 572 573
l 572 574
l 574 575
l 574 576
l 576 577
l 576 578
l 578 579
l 578 580
l 580 581
l 584 585
l 584 586
l 588 589
l 588 590
l 590 591
l 590 592
l 592 594
l 598 599
l 600 601
l 600 602
l 604 605
l 604 606
l 608 609
l 608 610
l 610 611
l 610 612
l 612 613
l 612 614
l 616 618
l 618 620
l 622 623
l 624 625
l 624 626
l 628 629
l 628 630
l 630 632
l 632 633
l 636 638
l 640 641
l 640 642
l 644 645
l 644 646
l 646 647
l 646 648
l 650 651
l 650 652
l 652 653
l 652 654
l 656 657
l 656 658
l 658 659
l 662 663
l 662 664
l 664 571
l 664 572
l 666 667
l 666 668
l 668 669
l 668 670
l 670 671
l 670 672
l 672 673
l 672 674
l 676 678
l 678 679
l 678 680
l 682 683
l 682 684
l 684 685
l 684 686
l 688 689
l 688 690
l 690 691
l 690 692
l 694 695
l 694 696
l 698 699
l 702 704
l 704 705
l 706 707
l 706 708
l 710 711
l 710 712
l 712 714
l 716 717
l 718 719
l 722 723
l 722 724
l 724 725
l 724 726
l 726 727
l 726 728
l 730 731
l 730 732
l 734 735
l 734 736
l 736 738
l 742 743
l 744 745
l 744 746
l 746 747
l 746 748
l 750 751
l 750 752
l 754 756
l 756 757
l 756 758
l 758 665
l 758 666
l 668 576
l 666 578
l 758 580
l 756 582
l 752 586
l 748 590
l 746 592
l 738 600
l 736 602
l 732 606
l 728 610
l 726 612
l 724 614
l 714 624
l 712 626
l 708 630
l 704 634
l 696 642
l 692 646
l 690 648
l 686 652
l 684 654
l 680 658
l 678 660
l 674 664
l 672 572
l 670 574
l 575 571
l 575 663
l 577 663
l 577 661
l 577 659
l 577 657
l 577 655
l 577 653
l 577 651
l 577 649
l 577 647
l 577 645
l 577 643
l 577 641
l 579 641
l 579 639
l 579 637
l 579 635
l 579 633
l 579 631
l 579 629
l 579 627
l 579 625
l 579 623
l 579 621
l 579 619
l 579 617
l 579 615
l 579 613
l 581 613
l 581 611
l 583 611
l 583 609
l 585 609
l 585 607
l 587 607
l 587 605
l 589 605
l 589 603
l 591 603
l 591 601
l 593 601
l 593 599
l 595 599
l 9 10
l 9 11
l 11 13
l 13 14
l 13 15
l 15 16
l 17 18
l 17 19
l 19 20
l 19 21
l 21 22
l 21 23
l 23 24
l 25 26
l 25 27
l 27 28
l 27 29
l 33 34
l 33 35
l 37 39
l 39 40
l 39 41
l 41 42
l 41 43
l 45 46
l 47 49
l 49 51
l 51 52
l 51 53
l 53 54
l 59 61
l 61 62
l 61 63
l 63 64
l 63 65
l 67 68
l 67 69
l 71 72
l 71 73
l 73 74
l 73 75
l 79 81
l 83 84
l 85 87
l 87 89
l 89 91
l 91 92
l 93 95
l 97 99
l 99 101
l 101 103
l 103 105
l 105 107
l 107 109
l 109 111
l 111 113
l 113 115
l 115 117
l 117 119
l 119 121
l 121 123
l 123 125
l 125 127
l 127 129
l 129 131
l 131 133
l 133 135
l 135 137
l 137 139
l 139 141
l 141 143
l 143 145
l 145 147
l 147 149
l 149 151
l 151 153
l 153 155
l 155 157
l 157 159
l 159 161
l 161 163
l 163 165
l 165 167
l 167 169
l 169 171
l 171 173
l 173 175
l 175 177
l 177 179
l 179 181
l 181 183
l 183 185
l 185 187
l 187 189
l 189 97
l 141 11
l 137 15
l 135 17
l 133 19
l 131 21
l 129 23
l 127 25
l 125 27
l 123 29
l 117 35
l 111 41
l 109 43
l 105 47
l 99 53
l 97 55
l 183 63
l 181 65
l 177 69
l 173 73
l 171 75
l 161 85
l 153 93
l 205 206
l 211 212
l 217 218
l 219 220
l 223 224
l 225 226
l 227 228
l 233 234
l 235 236
l 237 238
l 239 240
l 243 244
l 245 246
l 253 254
l 257 258
l 263 264
l 265 266
l 273 274
l 293 294
l 297 298
l 301 302
l 305 306
l 311 312
l 313 314
l 315 316
l 317 318
l 323 324
l 327 328
l 329 330
l 333 334
l 335 336
l 337 338
l 339 340
l 343 344
l 347 348
l 351 352
l 357 358
l 359 360
l 361 362
l 363 364
l 365 366
l 371 372
l 375 376
l 378 383
l 378 287
l 285 378
l 382 287
l 382 289
l 382 291
l 382 293
l 382 295
l 382 297
l 382 299
l 382 301
l 382 303
l 382 305
l 382 307
l 382 309
l 382 311
l 382 313
l 382 315
l 382 317
l 197 317
l 382 197
l 195 317
l 377 378
l 375 378
l 373 378
l 371 378
l 369 378
l 367 378
l 365 378
l 363 378
l 361 378
l 359 378
l 357 378
l 355 378
l 353 378
l 351 378
l 349 378
l 257 349
l 347 257
l 379 349
l 257 379
l 347 259
l 345 259
l 345 261
l 343 261
l 343 263
l 343 265
l 341 265
l 341 267
l 339 267
l 339 269
l 337 269
l 337 271
l 335 271
l 335 273
l 333 273
l 333 275
l 331 275
l 331 277
l 331 279
l 329 279
l 329 281
l 327 281
l 327 283
l 325 283
l 323 283
l 323 191
l 321 191
l 321 193
l 319 193
l 319 195
l 255 379
l 253 379
l 251 379
l 249 379
l 247 379
l 245 379
l 243 379
l 241 379
l 239 379
l 237 379
l 235 379
l 233 379
l 231 379
l 229 379
l 227 379
l 225 379
l 225 382
l 223 382
l 221 382
l 219 382
l 217 382
l 215 382
l 213 382
l 211 382
l 209 382
l 207 382
l 205 382
l 203 382
l 201 382
l 199 382
l 385 386
l 387 388
l 387 390
l 387 391
l 391 392
l 395 397
l 401 402
l 403 405
l 405 406
l 405 407
l 407 408
l 407 409
l 409 410
l 409 411
l 411 413
l 413 415
l 415 416
l 417 418
l 419 420
l 419 421
l 421 423
l 423 424
l 423 425
l 425 426
l 425 427
l 429 430
l 429 431
l 431 432
l 431 433
l 433 434
l 435 436
l 435 438
l 435 439
l 439 440
l 439 441
l 443 444
l 443 445
l 445 446
l 445 447
l 447 448
l 449 450
l 449 451
l 451 453
l 453 455
l 455 456
l 457 458
l 459 460
l 459 461
l 461 462
l 461 463
l 463 464
l 463 465
l 465 466
l 467 469
l 473 474
l 477 479
l 479 384
l 479 385
l 385 391
l 479 393
l 469 403
l 465 407
l 463 409
l 461 411
l 455 417
l 453 419
l 451 421
l 447 425
l 445 427
l 441 431
l 439 433
l 481 436
l 482 436
l 482 434
l 485 487
l 487 488
l 487 489
l 489 491
l 495 496
l 505 506
l 507 508
l 507 509
l 509 510
l 513 515
l 528 388
l 540 541
l 544 546
l 546 547
l 546 548
l 548 550
l 558 560
l 564 565
l 566 567
l 566 568
l 568 569
l 568 489
l 560 497
l 550 507
l 548 509
l 546 511
l 529 386
l 531 386
l 533 386
l 535 386
l 537 386
l 539 386
l 541 386
l 543 386
l 545 386
l 547 386
l 549 386
l 551 386
l 553 386
l 555 386
l 555 384
l 555 478
l 555 476
l 555 474
l 555 472
l 555 470
l 555 468
l 555 466
l 555 464
l 555 462
l 555 460
l 555 458
l 555 456
l 555 454
l 555 452
l 555 450
l 555 448
l 555 446
l 555 444
l 555 442
l 555 440
l 555 438
l 555 437
l 555 436
l 555 480
l 555 569
l 557 569
l 557 567
l 559 567
l 561 567
l 563 567
l 580 582
l 582 583
l 582 584
l 586 587
l 586 588
l 592 593
l 594 595
l 594 596
l 596 597
l 596 598
l 598 600
l 602 603
l 602 604
l 606 607
l 606 608
l 614 615
l 614 616
l 616 617
l 618 619
l 620 621
l 620 622
l 622 624
l 626 627
l 626 628
l 630 631
l 632 634
l 634 635
l 634 636
l 636 637
l 638 639
l 638 640
l 642 643
l 642 644
l 648 649
l 648 650
l 654 655
l 654 656
l 658 660
l 660 661
l 660 662
l 674 675
l 674 676
l 676 677
l 680 681
l 680 682
l 686 687
l 686 688
l 692 693
l 692 694
l 696 697
l 696 698
l 698 700
l 700 701
l 700 702
l 702 703
l 704 706
l 708 709
l 708 710
l 712 713
l 714 715
l 714 716
l 716 718
l 718 720
l 720 721
l 720 722
l 728 729
l 728 730
l 732 733
l 732 734
l 736 737
l 738 739
l 738 740
l 740 741
l 740 742
l 742 744
l 748 749
l 748 750
l 752 753
l 752 754
l 754 755
l 754 584
l 750 588
l 744 594
l 742 596
l 740 598
l 734 604
l 730 608
l 722 616
l 720 618
l 718 620
l 716 622
l 710 628
l 706 632
l 702 636
l 700 638
l 698 640
l 694 644
l 688 650
l 682 656
l 676 662
l 669 665
l 671 665
l 671 757
l 673 757
l 675 757
l 677 757
l 679 757
l 681 757
l 683 757
l 685 757
l 687 757
l 689 757
l 691 757
l 693 757
l 693 755
l 695 755
l 697 755
l 699 755
l 701 755
l 703 755
l 705 755
l 707 755
l 709 755
l 711 755
l 713 755
l 715 755
l 717 755
l 719 755
l 721 755
l 721 753
l 723 753
l 723 751
l 725 751
l 725 749
l 727 749
l 727 747
l 729 747
l 729 745
l 731 745
l 731 743
l 733 743
l 733 741
l 735 741
l 735 739
# </edges>
