v 5.94733476639 2.6253900528 0.849999964237
v 5.94684410095 2.61805915833 0.849999964237
l 1 2
v 5.94684410095 2.63272094727 0.849999964237
v 5.94733476639 2.6253900528 0.849999964237
l 3 4
v 5.94538068771 2.63992071152 0.849999964237
v 5.94684410095 2.63272094727 0.849999964237
l 5 6
v 5.94297075272 2.64686155319 0.849999964237
v 5.94538068771 2.63992071152 0.849999964237
l 7 8
v 5.9396572113 2.65341877937 0.849999964237
v 5.94297075272 2.64686155319 0.849999964237
l 9 10
v 5.93549919128 2.65947628021 0.849999964237
v 5.9396572113 2.65341877937 0.849999964237
l 11 12
v 5.93057060242 2.66492533684 0.849999964237
v 5.93549919128 2.65947628021 0.849999964237
l 13 14
v 5.92496013641 2.66966891289 0.849999964237
v 5.93057060242 2.66492533684 0.849999964237
l 15 16
v 5.9187669754 2.67362213135 0.849999964237
v 5.92496013641 2.66966891289 0.849999964237
l 17 18
v 5.91210269928 2.67671489716 0.849999964237
v 5.9187669754 2.67362213135 0.849999964237
l 19 20
v 5.90508508682 2.67889165878 0.849999964237
v 5.91210269928 2.67671489716 0.849999964237
l 21 22
v 5.89784049988 2.68011403084 0.849999964237
v 5.90508508682 2.67889165878 0.849999964237
l 23 24
v 5.89049720764 2.68035936356 0.849999964237
v 5.89784049988 2.68011403084 0.849999964237
l 25 26
v 5.88318681717 2.67962384224 0.849999964237
v 5.89049720764 2.68035936356 0.849999964237
l 27 28
v 5.87603998184 2.67792057991 0.849999964237
v 5.88318681717 2.67962384224 0.849999964237
l 29 30
v 5.86918354034 2.67527985573 0.849999964237
v 5.87603998184 2.67792057991 0.849999964237
l 31 32
v 5.86274003983 2.67174911499 0.849999964237
v 5.86918354034 2.67527985573 0.849999964237
l 33 34
v 5.85682582855 2.66739106178 0.849999964237
v 5.86274003983 2.67174911499 0.849999964237
l 35 36
v 5.85154390335 2.66228318214 0.849999964237
v 5.85682582855 2.66739106178 0.849999964237
l 37 38
v 5.84699058533 2.65651726723 0.849999964237
v 5.85154390335 2.66228318214 0.849999964237
l 39 40
v 5.84324645996 2.6501955986 0.849999964237
v 5.84699058533 2.65651726723 0.849999964237
l 41 42
v 5.84037828445 2.64343142509 0.849999964237
v 5.84324645996 2.6501955986 0.849999964237
l 43 44
v 5.83843708038 2.63634538651 0.849999964237
v 5.84037828445 2.64343142509 0.849999964237
l 45 46
v 5.8374581337 2.62906360626 0.849999964237
v 5.83843708038 2.63634538651 0.849999964237
l 47 48
v 5.8374581337 2.62171649933 0.849999964237
v 5.8374581337 2.62906360626 0.849999964237
l 49 50
v 5.83843708038 2.61443471909 0.849999964237
v 5.8374581337 2.62171649933 0.849999964237
l 51 52
v 5.84037828445 2.6073486805 0.849999964237
v 5.83843708038 2.61443471909 0.849999964237
l 53 54
v 5.84324645996 2.60058450699 0.849999964237
v 5.84037828445 2.6073486805 0.849999964237
l 55 56
v 5.84699058533 2.59426283836 0.849999964237
v 5.84324645996 2.60058450699 0.849999964237
l 57 58
v 5.85154390335 2.58849692345 0.849999964237
v 5.84699058533 2.59426283836 0.849999964237
l 59 60
v 5.85682582855 2.58338904381 0.849999964237
v 5.85154390335 2.58849692345 0.849999964237
l 61 62
v 5.86274003983 2.5790309906 0.849999964237
v 5.85682582855 2.58338904381 0.849999964237
l 63 64
v 5.86918354034 2.57550024986 0.849999964237
v 5.86274003983 2.5790309906 0.849999964237
l 65 66
v 5.87603998184 2.57285952568 0.849999964237
v 5.86918354034 2.57550024986 0.849999964237
l 67 68
v 5.88318681717 2.57115626335 0.849999964237
v 5.87603998184 2.57285952568 0.849999964237
l 69 70
v 5.89049720764 2.57042074203 0.849999964237
v 5.88318681717 2.57115626335 0.849999964237
l 71 72
v 5.89784049988 2.57066607475 0.849999964237
v 5.89049720764 2.57042074203 0.849999964237
l 73 74
v 5.90508508682 2.57188844681 0.849999964237
v 5.89784049988 2.57066607475 0.849999964237
l 75 76
v 5.91210269928 2.57406520844 0.849999964237
v 5.90508508682 2.57188844681 0.849999964237
l 77 78
v 5.9187669754 2.57715797424 0.849999964237
v 5.91210269928 2.57406520844 0.849999964237
l 79 80
v 5.92496013641 2.5811111927 0.849999964237
v 5.9187669754 2.57715797424 0.849999964237
l 81 82
v 5.93057060242 2.58585476875 0.849999964237
v 5.92496013641 2.5811111927 0.849999964237
l 83 84
v 5.93549919128 2.59130382538 0.849999964237
v 5.93057060242 2.58585476875 0.849999964237
l 85 86
v 5.9396572113 2.59736132622 0.849999964237
v 5.93549919128 2.59130382538 0.849999964237
l 87 88
v 5.94297075272 2.6039185524 0.849999964237
v 5.9396572113 2.59736132622 0.849999964237
l 89 90
v 5.94538068771 2.61085939407 0.849999964237
v 5.94297075272 2.6039185524 0.849999964237
l 91 92
v 5.94684410095 2.61805915833 0.849999964237
v 5.94538068771 2.61085939407 0.849999964237
l 93 94
v 5.51383113861 2.36805915833 0.849999964237
v 5.51383113861 2.36805915833 0.861000001431
l 95 96
v 5.51432180405 2.3753900528 0.861000001431
v 5.51432180405 2.3753900528 0.849999964237
l 97 98
v 5.51383113861 2.38272094727 0.861000001431
v 5.51383113861 2.38272094727 0.849999964237
l 99 100
v 5.51236772537 2.38992071152 0.861000001431
v 5.51236772537 2.38992071152 0.849999964237
l 101 102
v 5.50995731354 2.39686155319 0.861000001431
v 5.50995731354 2.39686155319 0.849999964237
l 103 104
v 5.50664424896 2.40341877937 0.861000001431
v 5.50664424896 2.40341877937 0.849999964237
l 105 106
v 5.50248575211 2.40947628021 0.861000001431
v 5.50248575211 2.40947628021 0.849999964237
l 107 108
v 5.49755764008 2.41492533684 0.861000001431
v 5.49755764008 2.41492533684 0.849999964237
l 109 110
v 5.49194669724 2.41966891289 0.861000001431
v 5.49194669724 2.41966891289 0.849999964237
l 111 112
v 5.48575401306 2.42362213135 0.861000001431
v 5.48575401306 2.42362213135 0.849999964237
l 113 114
v 5.4790892601 2.42671489716 0.861000001431
v 5.4790892601 2.42671489716 0.849999964237
l 115 116
v 5.47207212448 2.42889165878 0.861000001431
v 5.47207212448 2.42889165878 0.849999964237
l 117 118
v 5.4648270607 2.43011403084 0.861000001431
v 5.4648270607 2.43011403084 0.849999964237
l 119 120
v 5.4574842453 2.43035936356 0.861000001431
v 5.4574842453 2.43035936356 0.849999964237
l 121 122
v 5.45017385483 2.42962384224 0.861000001431
v 5.45017385483 2.42962384224 0.849999964237
l 123 124
v 5.4430270195 2.42792057991 0.861000001431
v 5.4430270195 2.42792057991 0.849999964237
l 125 126
v 5.436170578 2.42527985573 0.861000001431
v 5.436170578 2.42527985573 0.849999964237
l 127 128
v 5.42972755432 2.42174911499 0.861000001431
v 5.42972755432 2.42174911499 0.849999964237
l 129 130
v 5.42381238937 2.41739106178 0.861000001431
v 5.42381238937 2.41739106178 0.849999964237
l 131 132
v 5.41853141785 2.41228318214 0.861000001431
v 5.41853141785 2.41228318214 0.849999964237
l 133 134
v 5.41397762299 2.40651726723 0.861000001431
v 5.41397762299 2.40651726723 0.849999964237
l 135 136
v 5.41023349762 2.4001955986 0.861000001431
v 5.41023349762 2.4001955986 0.849999964237
l 137 138
v 5.40736532211 2.39343142509 0.861000001431
v 5.40736532211 2.39343142509 0.849999964237
l 139 140
v 5.40542411804 2.38634538651 0.861000001431
v 5.40542411804 2.38634538651 0.849999964237
l 141 142
v 5.40444469452 2.37906360626 0.861000001431
v 5.40444469452 2.37906360626 0.849999964237
l 143 144
v 5.40444469452 2.37171649933 0.861000001431
v 5.40444469452 2.37171649933 0.849999964237
l 145 146
v 5.40542411804 2.36443471909 0.861000001431
v 5.40542411804 2.36443471909 0.849999964237
l 147 148
v 5.40736532211 2.3573486805 0.861000001431
v 5.40736532211 2.3573486805 0.849999964237
l 149 150
v 5.41023349762 2.35058450699 0.861000001431
v 5.41023349762 2.35058450699 0.849999964237
l 151 152
v 5.41397762299 2.34426283836 0.861000001431
v 5.41397762299 2.34426283836 0.849999964237
l 153 154
v 5.41853141785 2.33849692345 0.861000001431
v 5.41853141785 2.33849692345 0.849999964237
l 155 156
v 5.42381238937 2.33338904381 0.861000001431
v 5.42381238937 2.33338904381 0.849999964237
l 157 158
v 5.42972755432 2.3290309906 0.861000001431
v 5.42972755432 2.3290309906 0.849999964237
l 159 160
v 5.436170578 2.32550024986 0.861000001431
v 5.436170578 2.32550024986 0.849999964237
l 161 162
v 5.4430270195 2.32285952568 0.861000001431
v 5.4430270195 2.32285952568 0.849999964237
l 163 164
v 5.45017385483 2.32115626335 0.861000001431
v 5.45017385483 2.32115626335 0.849999964237
l 165 166
v 5.4574842453 2.32042074203 0.861000001431
v 5.4574842453 2.32042074203 0.849999964237
l 167 168
v 5.4648270607 2.32066607475 0.861000001431
v 5.4648270607 2.32066607475 0.849999964237
l 169 170
v 5.47207212448 2.32188844681 0.861000001431
v 5.47207212448 2.32188844681 0.849999964237
l 171 172
v 5.4790892601 2.32406520844 0.861000001431
v 5.4790892601 2.32406520844 0.849999964237
l 173 174
v 5.48575401306 2.32715797424 0.861000001431
v 5.48575401306 2.32715797424 0.849999964237
l 175 176
v 5.49194669724 2.3311111927 0.861000001431
v 5.49194669724 2.3311111927 0.849999964237
l 177 178
v 5.49755764008 2.33585476875 0.861000001431
v 5.49755764008 2.33585476875 0.849999964237
l 179 180
v 5.50248575211 2.34130382538 0.861000001431
v 5.50248575211 2.34130382538 0.849999964237
l 181 182
v 5.50664424896 2.34736132622 0.861000001431
v 5.50664424896 2.34736132622 0.849999964237
l 183 184
v 5.50995731354 2.3539185524 0.861000001431
v 5.50995731354 2.3539185524 0.849999964237
l 185 186
v 5.51236772537 2.36085939407 0.861000001431
v 5.51236772537 2.36085939407 0.849999964237
l 187 188
v 5.94684410095 2.11805915833 0.849999964237
v 5.94684410095 2.11805915833 0.861000001431
l 189 190
v 5.94733476639 2.1253900528 0.861000001431
v 5.94733476639 2.1253900528 0.849999964237
l 191 192
v 5.94684410095 2.13272094727 0.861000001431
v 5.94684410095 2.13272094727 0.849999964237
l 193 194
v 5.94538068771 2.13992071152 0.861000001431
v 5.94538068771 2.13992071152 0.849999964237
l 195 196
v 5.94297075272 2.14686155319 0.861000001431
v 5.94297075272 2.14686155319 0.849999964237
l 197 198
v 5.9396572113 2.15341877937 0.861000001431
v 5.9396572113 2.15341877937 0.849999964237
l 199 200
v 5.93549919128 2.15947628021 0.861000001431
v 5.93549919128 2.15947628021 0.849999964237
l 201 202
v 5.93057060242 2.16492533684 0.861000001431
v 5.93057060242 2.16492533684 0.849999964237
l 203 204
v 5.92496013641 2.16966891289 0.861000001431
v 5.92496013641 2.16966891289 0.849999964237
l 205 206
v 5.9187669754 2.17362213135 0.861000001431
v 5.9187669754 2.17362213135 0.849999964237
l 207 208
v 5.91210269928 2.17671489716 0.861000001431
v 5.91210269928 2.17671489716 0.849999964237
l 209 210
v 5.90508508682 2.17889165878 0.861000001431
v 5.90508508682 2.17889165878 0.849999964237
l 211 212
v 5.89784049988 2.18011403084 0.861000001431
v 5.89784049988 2.18011403084 0.849999964237
l 213 214
v 5.89049720764 2.18035936356 0.861000001431
v 5.89049720764 2.18035936356 0.849999964237
l 215 216
v 5.88318681717 2.17962384224 0.861000001431
v 5.88318681717 2.17962384224 0.849999964237
l 217 218
v 5.87603998184 2.17792057991 0.861000001431
v 5.87603998184 2.17792057991 0.849999964237
l 219 220
v 5.86918354034 2.17527985573 0.861000001431
v 5.86918354034 2.17527985573 0.849999964237
l 221 222
v 5.86274003983 2.17174911499 0.861000001431
v 5.86274003983 2.17174911499 0.849999964237
l 223 224
v 5.85682582855 2.16739106178 0.861000001431
v 5.85682582855 2.16739106178 0.849999964237
l 225 226
v 5.85154390335 2.16228318214 0.861000001431
v 5.85154390335 2.16228318214 0.849999964237
l 227 228
v 5.84699058533 2.15651726723 0.861000001431
v 5.84699058533 2.15651726723 0.849999964237
l 229 230
v 5.84324645996 2.1501955986 0.861000001431
v 5.84324645996 2.1501955986 0.849999964237
l 231 232
v 5.84037828445 2.14343142509 0.861000001431
v 5.84037828445 2.14343142509 0.849999964237
l 233 234
v 5.83843708038 2.13634538651 0.861000001431
v 5.83843708038 2.13634538651 0.849999964237
l 235 236
v 5.8374581337 2.12906360626 0.861000001431
v 5.8374581337 2.12906360626 0.849999964237
l 237 238
v 5.8374581337 2.12171649933 0.861000001431
v 5.8374581337 2.12171649933 0.849999964237
l 239 240
v 5.83843708038 2.11443471909 0.861000001431
v 5.83843708038 2.11443471909 0.849999964237
l 241 242
v 5.84037828445 2.1073486805 0.861000001431
v 5.84037828445 2.1073486805 0.849999964237
l 243 244
v 5.84324645996 2.10058450699 0.861000001431
v 5.84324645996 2.10058450699 0.849999964237
l 245 246
v 5.84699058533 2.09426283836 0.861000001431
v 5.84699058533 2.09426283836 0.849999964237
l 247 248
v 5.85154390335 2.08849692345 0.861000001431
v 5.85154390335 2.08849692345 0.849999964237
l 249 250
v 5.85682582855 2.08338904381 0.861000001431
v 5.85682582855 2.08338904381 0.849999964237
l 251 252
v 5.86274003983 2.0790309906 0.861000001431
v 5.86274003983 2.0790309906 0.849999964237
l 253 254
v 5.86918354034 2.07550024986 0.861000001431
v 5.86918354034 2.07550024986 0.849999964237
l 255 256
v 5.87603998184 2.07285952568 0.861000001431
v 5.87603998184 2.07285952568 0.849999964237
l 257 258
v 5.88318681717 2.07115626335 0.861000001431
v 5.88318681717 2.07115626335 0.849999964237
l 259 260
v 5.89049720764 2.07042074203 0.861000001431
v 5.89049720764 2.07042074203 0.849999964237
l 261 262
v 5.89784049988 2.07066607475 0.861000001431
v 5.89784049988 2.07066607475 0.849999964237
l 263 264
v 5.90508508682 2.07188844681 0.861000001431
v 5.90508508682 2.07188844681 0.849999964237
l 265 266
v 5.91210269928 2.07406520844 0.861000001431
v 5.91210269928 2.07406520844 0.849999964237
l 267 268
v 5.9187669754 2.07715797424 0.861000001431
v 5.9187669754 2.07715797424 0.849999964237
l 269 270
v 5.92496013641 2.0811111927 0.861000001431
v 5.92496013641 2.0811111927 0.849999964237
l 271 272
v 5.93057060242 2.08585476875 0.861000001431
v 5.93057060242 2.08585476875 0.849999964237
l 273 274
v 5.93549919128 2.09130382538 0.861000001431
v 5.93549919128 2.09130382538 0.849999964237
l 275 276
v 5.9396572113 2.09736132622 0.861000001431
v 5.9396572113 2.09736132622 0.849999964237
l 277 278
v 5.94297075272 2.1039185524 0.861000001431
v 5.94297075272 2.1039185524 0.849999964237
l 279 280
v 5.94538068771 2.11085939407 0.861000001431
v 5.94538068771 2.11085939407 0.849999964237
l 281 282
